<?xml version="1.0" standalone="no"?>
<!DOCTYPE svg PUBLIC "-//W3C//DTD SVG 20010904//EN"
 "http://www.w3.org/TR/2001/REC-SVG-20010904/DTD/svg10.dtd">
<svg version="1.0" xmlns="http://www.w3.org/2000/svg"
 width="16.000000pt" height="16.000000pt" viewBox="0 0 16.000000 16.000000"
 preserveAspectRatio="xMidYMid meet">
<metadata>
Created by potrace 1.11, written by Peter Selinger 2001-2013
</metadata>
<g transform="translate(0.000000,16.000000) scale(0.001154,-0.001154)"
fill="#000000" stroke="none">
<path d="M8389 10621 c-3 -8 -445 -11 -1669 -11 -3484 1 -5076 0 -5092 -3 -24
-4 -26 -8 -33 -47 -10 -60 -28 -124 -44 -160 -8 -19 -14 -39 -13 -43 1 -4 -9
-32 -23 -63 -14 -30 -25 -59 -25 -64 0 -6 -5 -10 -10 -10 -6 0 -9 -3 -8 -7 3
-12 -36 -93 -44 -93 -5 0 -8 -5 -8 -10 0 -12 -52 -94 -62 -98 -5 -2 -8 -8 -8
-13 0 -14 -33 -48 -42 -43 -4 3 -6 -1 -3 -8 6 -15 -66 -100 -144 -171 -14 -12
-33 -31 -44 -41 -34 -32 -127 -107 -127 -101 0 4 -17 -9 -54 -40 -6 -5 -18
-11 -26 -13 -8 -2 -17 -7 -20 -12 -11 -18 -184 -101 -199 -95 -8 3 -12 3 -8
-1 8 -8 -54 -40 -88 -46 -11 -1 -22 -5 -25 -8 -3 -3 -22 -11 -42 -17 -28 -8
-38 -8 -38 0 0 6 -7 2 -15 -9 -8 -10 -15 -16 -15 -12 0 4 -11 3 -25 -2 -18 -7
-25 -6 -25 3 0 8 -3 7 -9 -2 -5 -8 -18 -16 -28 -17 -10 -2 -27 -5 -38 -7 -11
-2 -26 1 -34 7 -12 9 -13 8 -6 -3 6 -11 1 -13 -23 -9 -17 2 -29 1 -26 -3 2 -4
-4 -8 -13 -8 -10 -1 -25 -1 -33 -2 -8 -1 -24 2 -34 7 -13 5 -17 4 -13 -3 4 -6
-4 -9 -23 -7 -38 5 -43 -5 -42 -85 0 -39 -4 -69 -11 -73 -9 -6 -9 -8 0 -8 8 0
12 -21 12 -65 -1 -47 -4 -63 -12 -58 -9 5 -9 3 -1 -8 17 -20 17 -322 1 -312
-9 5 -9 3 0 -8 16 -19 15 -421 -1 -412 -6 3 -5 0 1 -8 17 -18 17 -63 1 -53
-10 6 -10 5 -1 -7 14 -17 16 -449 2 -449 -27 0 19 -26 50 -28 44 -3 85 -9 89
-12 1 -1 14 -3 30 -5 32 -2 62 -14 62 -24 0 -4 -7 -8 -15 -8 -8 0 -11 5 -8 10
4 6 1 7 -7 2 -9 -6 -11 -4 -5 5 5 8 4 11 -3 7 -5 -4 -9 -15 -7 -25 1 -9 -2
-22 -6 -28 -6 -7 -3 -16 8 -25 16 -12 17 -12 6 2 -11 13 -9 19 9 35 20 18 21
18 15 1 -4 -10 -3 -16 2 -12 5 3 13 0 17 -6 7 -12 24 6 24 26 0 6 -4 3 -10 -5
-5 -8 -13 -11 -17 -6 -4 5 -2 11 5 13 6 3 9 10 6 15 -5 7 -2 8 7 2 14 -9 19
-10 39 -13 6 0 10 -6 10 -12 0 -8 -5 -8 -15 1 -8 7 -15 8 -15 4 0 -5 10 -15
21 -22 16 -10 18 -17 10 -25 -6 -6 -11 -16 -11 -22 0 -5 5 -2 10 7 14 22 59
17 81 -10 15 -19 18 -20 29 -7 11 13 10 14 -6 9 -16 -6 -17 -5 -6 7 11 12 16
11 28 -6 9 -11 20 -19 25 -17 6 1 8 -2 5 -7 -4 -5 -2 -12 4 -16 6 -4 7 -11 4
-17 -4 -7 -2 -8 5 -4 6 4 9 12 6 17 -4 5 -1 9 4 9 15 0 14 -23 -2 -39 -10 -11
-8 -11 10 0 30 18 54 -2 36 -30 -10 -16 -9 -19 5 -16 10 1 16 10 14 21 -2 18
-2 18 10 -1 14 -24 25 -38 56 -71 13 -13 21 -28 18 -32 -2 -4 2 -18 10 -32 16
-29 19 -19 3 13 -10 22 -10 22 6 2 9 -11 14 -28 11 -38 -2 -9 -1 -15 4 -12 4
3 14 -3 21 -12 12 -14 11 -15 -9 -9 -14 5 -22 3 -22 -4 0 -6 4 -9 9 -6 15 10
51 -31 51 -58 0 -14 5 -26 10 -26 6 0 9 -3 9 -7 -1 -5 0 -10 1 -13 8 -20 23
-111 24 -147 1 -18 5 -35 8 -39 4 -4 3 -15 -3 -25 -7 -13 -6 -19 1 -19 6 0 8
-5 3 -12 -12 -20 -12 -38 -1 -38 6 0 6 -6 -2 -15 -6 -8 -9 -19 -5 -25 4 -6 -1
-18 -11 -26 -11 -9 -13 -13 -6 -9 6 3 12 3 12 -2 0 -11 -19 -84 -27 -103 -8
-18 -10 -27 -12 -40 0 -5 -11 -19 -23 -31 -13 -12 -17 -19 -10 -15 17 10 16 5
-14 -48 -16 -28 -30 -43 -37 -39 -7 3 -9 3 -5 -2 11 -11 -11 -47 -24 -39 -6 4
-8 3 -4 -4 9 -14 -43 -74 -57 -65 -7 3 -9 2 -4 -2 4 -5 -7 -24 -25 -42 -24
-25 -35 -30 -45 -21 -10 8 -12 7 -8 -4 6 -14 -56 -64 -87 -70 -7 -2 -15 -5
-18 -9 -14 -15 -128 -57 -180 -65 -8 -2 -28 -5 -45 -8 -16 -2 -32 -5 -35 -7
-3 -1 -21 -2 -40 -3 l-35 -1 -3 -53 c-2 -37 -7 -51 -15 -46 -8 5 -8 3 1 -7 6
-7 12 -26 12 -42 0 -20 -4 -26 -12 -21 -10 6 -10 5 -1 -7 16 -20 15 -181 -1
-172 -6 3 -5 0 2 -8 16 -18 16 -63 0 -53 -10 6 -10 5 -1 -7 16 -19 15 -421 -1
-412 -6 3 -5 0 2 -8 16 -18 16 -63 -1 -53 -9 6 -9 5 0 -7 16 -19 15 -421 -1
-412 -6 3 -5 0 2 -8 6 -7 12 -28 12 -47 0 -24 -3 -31 -12 -26 -10 6 -10 5 -1
-7 6 -8 13 -29 15 -47 3 -34 3 -34 63 -39 64 -5 100 -9 100 -13 0 -1 18 -3 40
-4 53 -4 55 -5 55 -15 0 -5 -8 -8 -18 -6 -9 1 -26 -2 -37 -7 -19 -9 -19 -8 -2
5 16 14 15 15 -11 14 -25 -2 -28 -4 -18 -19 6 -11 17 -16 26 -12 33 13 49 12
68 -7 20 -18 21 -18 19 0 0 10 -6 18 -12 17 -5 -2 -7 -1 -2 1 4 3 5 8 2 13 -4
7 17 7 35 0 3 -1 9 -2 13 -1 5 1 6 -3 2 -9 -3 -6 -11 -8 -16 -5 -5 4 -9 1 -9
-4 0 -6 7 -11 16 -11 8 0 12 -5 9 -10 -4 -6 -10 -8 -15 -5 -4 3 -10 -2 -13
-10 -5 -12 -2 -12 18 -3 14 6 25 14 25 18 0 4 7 7 15 7 11 0 14 -7 10 -21 -5
-19 -5 -19 5 -3 7 10 10 24 7 31 -4 10 2 10 29 2 19 -6 34 -14 34 -18 0 -8
-21 -5 -39 6 -9 6 -12 5 -7 -2 3 -5 0 -12 -6 -15 -8 -2 -9 -8 -4 -13 5 -5 11
-4 13 4 7 19 23 4 16 -16 -3 -11 1 -9 11 6 10 12 22 20 27 16 6 -3 3 -12 -8
-19 -15 -11 -16 -16 -5 -27 11 -11 12 -10 6 6 -5 13 -4 17 4 12 7 -4 12 -2 12
4 0 6 4 9 9 5 5 -3 13 0 17 6 4 7 3 9 -3 6 -12 -8 -39 20 -29 30 3 3 6 1 6 -5
0 -7 3 -11 8 -10 4 0 15 -2 25 -7 10 -4 21 -5 24 -2 3 4 20 -4 37 -16 17 -12
33 -21 36 -20 6 2 4 -16 -5 -42 -3 -11 2 -5 13 14 11 19 21 29 23 23 2 -7 15
-14 28 -17 32 -6 71 -33 71 -48 0 -6 -5 -4 -11 6 -8 13 -14 15 -29 7 -21 -11
-36 2 -24 23 4 6 4 9 -1 5 -4 -4 -16 -3 -26 3 -13 6 -19 6 -19 -1 0 -5 7 -10
15 -10 8 0 15 -3 15 -7 1 -24 18 -35 39 -24 17 10 21 9 21 -4 0 -8 5 -15 10
-15 6 0 21 -11 34 -25 20 -21 25 -23 35 -11 9 11 9 16 0 22 -7 4 -9 3 -5 -4 3
-6 2 -13 -4 -17 -9 -6 -14 8 -11 28 1 5 -2 6 -7 3 -15 -9 -31 9 -22 24 6 8 10
10 10 4 0 -6 14 -17 30 -24 17 -7 30 -17 30 -23 0 -6 3 -7 6 -4 9 9 46 -12 62
-35 7 -10 18 -15 24 -12 6 4 8 1 6 -7 -3 -8 -10 -13 -16 -12 -6 2 -9 -4 -5
-12 5 -14 7 -13 18 1 11 16 14 16 35 1 21 -14 21 -17 6 -23 -15 -6 -15 -7 1
-20 15 -11 15 -13 3 -14 -13 0 -13 -1 0 -10 8 -5 20 -10 25 -10 6 0 3 5 -5 10
-8 5 -11 10 -6 10 5 0 3 6 -3 14 -9 10 -8 15 3 19 14 6 66 -44 66 -62 0 -6 5
-13 12 -17 8 -5 9 -1 4 12 -4 13 2 9 19 -10 14 -16 25 -33 25 -38 0 -5 4 -7 9
-4 5 3 18 -13 30 -37 12 -23 19 -31 15 -17 -6 24 -6 24 10 5 18 -23 21 -49 4
-39 -7 4 -8 3 -4 -5 6 -9 11 -9 21 -1 10 8 18 3 36 -22 13 -18 27 -35 32 -37
4 -1 0 -9 -10 -17 -17 -13 -17 -14 0 -8 22 8 48 -13 40 -33 -4 -11 -2 -14 5
-9 7 4 12 3 12 -3 0 -5 12 -24 26 -41 15 -17 24 -33 21 -36 -3 -3 3 -14 14
-25 11 -11 17 -24 14 -29 -4 -6 0 -10 7 -10 9 0 9 -3 -2 -10 -13 -8 -13 -10 1
-10 15 0 51 -63 49 -84 -1 -5 4 -13 12 -17 11 -7 10 -9 -1 -9 -12 0 -12 -2 1
-12 24 -21 88 -221 82 -261 -1 -9 1 -17 5 -17 4 0 8 -12 9 -26 1 -15 7 -33 13
-40 7 -9 5 -15 -8 -23 -10 -6 -13 -11 -7 -11 16 0 25 -38 10 -43 -8 -3 -7 -8
2 -20 7 -8 13 -39 13 -69 -1 -29 0 -61 1 -70 1 -17 18 -20 29 -5 4 5 16 -1 28
-14 11 -12 21 -20 21 -16 0 4 9 3 20 -3 16 -8 18 -8 14 4 -3 8 -14 13 -25 11
-12 -3 -19 2 -19 12 0 11 4 13 13 6 6 -5 29 -8 49 -7 29 1 41 -4 53 -22 8 -13
11 -24 6 -24 -11 0 -32 25 -26 31 2 3 -6 5 -19 5 -22 0 -23 -2 -10 -21 8 -12
11 -25 7 -29 -9 -8 42 0 57 9 6 4 17 1 25 -5 8 -7 15 -8 15 -3 0 12 38 14 45
2 4 -5 14 -5 26 2 15 7 24 7 35 -2 8 -6 14 -7 14 -2 0 12 38 14 45 2 4 -5 14
-5 26 1 11 6 17 15 14 20 -3 4 -2 10 2 13 5 2 1 2 -7 0 -11 -3 -12 -1 -3 8 6
6 16 8 22 5 12 -8 5 -33 -18 -61 -16 -20 -15 -20 5 -2 11 9 24 14 29 10 4 -5
5 1 1 13 -4 15 -2 21 9 21 8 0 17 -8 20 -17 3 -9 12 -17 20 -17 8 0 12 4 9 9
-3 4 -2 8 3 9 4 0 16 2 26 4 12 2 17 -1 14 -9 -3 -7 1 -13 9 -13 17 0 18 13 3
23 -17 10 12 25 35 18 11 -4 16 -2 12 4 -3 5 2 16 11 23 12 10 15 11 9 1 -6
-9 -1 -11 18 -8 15 3 30 -2 38 -12 11 -13 11 -14 -1 -7 -9 5 -12 4 -8 -2 3 -5
0 -10 -8 -10 -8 0 -12 5 -8 10 3 5 -5 4 -17 -3 -18 -10 -21 -10 -15 2 3 7 0 4
-9 -6 -13 -17 -18 -17 -33 -5 -16 12 -17 12 -6 -2 7 -9 9 -19 5 -24 -4 -4 3
-2 16 4 18 10 27 10 38 0 8 -6 14 -7 14 -2 0 12 38 14 45 2 4 -5 14 -5 26 1
11 6 17 15 14 20 -3 4 -2 10 2 13 5 2 1 2 -7 0 -11 -3 -12 -1 -3 8 6 6 16 8
22 5 12 -8 5 -33 -18 -61 -16 -20 -15 -20 5 -2 11 9 24 14 29 10 4 -5 5 1 1
13 -4 15 -2 21 9 21 8 0 17 -8 20 -17 3 -9 12 -17 20 -17 8 0 12 4 9 9 -3 4
-2 8 3 9 4 0 16 2 26 4 12 2 17 -1 14 -9 -3 -7 1 -13 9 -13 17 0 18 9 3 24 -8
8 2 11 35 10 41 0 46 -3 40 -20 -4 -13 -2 -17 5 -13 6 4 11 14 11 22 0 8 4 13
8 10 4 -2 14 -1 21 3 9 6 10 11 2 15 -6 4 -11 3 -11 -2 0 -5 -6 -9 -13 -9 -8
0 -14 6 -14 13 0 7 4 11 9 8 5 -3 16 0 24 7 12 10 15 10 12 -1 -2 -7 3 -15 11
-18 8 -2 11 0 8 5 -4 6 15 9 48 8 35 -2 52 1 48 8 -3 6 -1 7 6 3 6 -4 9 -12 6
-17 -4 -5 -1 -9 4 -9 6 0 11 5 11 12 0 6 3 8 7 5 3 -4 13 -1 22 5 13 10 14 10
4 -2 -19 -21 -15 -35 5 -18 9 9 27 14 40 12 14 -2 21 0 17 6 -4 6 1 7 11 3 11
-4 13 -8 6 -11 -7 -2 -10 -8 -7 -12 3 -5 12 -7 20 -4 8 4 12 10 9 15 -3 5 3 6
12 2 13 -5 15 -3 9 7 -5 9 -4 11 4 6 6 -4 9 -12 6 -17 -7 -10 8 -12 18 -2 4 3
19 7 34 9 16 1 22 0 16 -3 -20 -7 -15 -19 7 -20 11 -1 19 4 17 10 -1 7 6 11
17 9 13 -2 16 1 10 10 -6 10 -5 11 8 1 8 -7 17 -11 20 -8 3 3 11 -2 19 -12 12
-14 12 -16 0 -8 -9 5 -12 4 -8 -2 3 -5 0 -10 -8 -10 -8 0 -12 5 -8 10 3 5 -5
4 -17 -3 -18 -10 -21 -10 -15 2 3 7 0 5 -8 -5 -13 -16 -19 -17 -39 -6 -35 19
-52 21 -37 3 7 -8 7 -14 1 -14 -5 0 -15 7 -22 15 -7 8 -18 15 -24 15 -7 0 -6
-4 2 -9 11 -7 11 -9 -2 -14 -8 -3 -17 -3 -19 1 -2 4 -2 1 -1 -5 5 -20 -14 -15
-20 5 -4 13 -4 13 -3 -3 1 -11 -2 -26 -7 -34 -6 -9 -1 -8 16 3 14 9 28 13 33
9 4 -5 5 -2 1 5 -6 9 -1 11 18 8 14 -3 31 -8 37 -12 7 -4 9 -3 5 4 -3 6 -2 13
4 17 9 6 14 -8 11 -28 -1 -4 10 0 24 9 20 13 28 14 40 4 8 -7 15 -8 15 -3 0
12 38 14 45 2 4 -5 14 -5 26 1 20 11 26 1 9 -16 -7 -7 -6 -11 4 -11 8 0 13 3
11 6 -2 4 3 17 11 31 7 14 14 22 15 18 5 -24 4 -34 -6 -41 -6 -5 -4 -7 5 -4 8
2 14 14 14 26 -1 12 3 20 10 18 6 -2 10 -13 8 -23 -2 -11 0 -15 5 -8 15 20 42
24 52 6 9 -14 11 -14 12 -2 1 8 1 18 0 22 0 4 8 6 19 5 22 -1 27 -13 8 -19 -8
-3 -6 -7 4 -10 12 -5 15 -1 14 16 -2 13 -6 28 -10 34 -5 8 -1 10 10 5 12 -4
15 -3 10 5 -5 8 -1 10 10 5 11 -4 13 -8 6 -11 -7 -2 -10 -8 -7 -12 3 -5 12 -7
20 -4 8 4 12 10 9 15 -3 5 3 6 12 2 13 -5 15 -3 9 7 -5 9 -4 11 4 6 6 -4 9
-12 6 -17 -4 -5 -2 -9 4 -9 5 0 13 5 16 10 4 6 11 8 16 4 5 -3 16 -1 23 5 10
8 17 7 26 -4 13 -16 35 -21 26 -7 -3 5 1 9 9 9 8 0 21 -15 30 -34 18 -38 21
-39 29 -17 3 8 2 13 -3 10 -5 -3 -11 1 -15 9 -3 8 -1 15 5 15 6 0 8 4 5 8 -2
4 10 7 27 7 18 -1 37 2 44 7 16 13 46 -33 37 -57 -5 -13 -4 -16 4 -11 7 4 12
14 12 22 0 8 5 14 11 14 7 0 8 -7 4 -18 -12 -31 -14 -53 -4 -46 6 3 8 8 5 11
-3 3 4 23 15 45 17 32 23 37 35 28 15 -14 18 -21 7 -19 -20 3 -30 -2 -30 -17
0 -15 1 -15 12 0 7 8 15 13 18 9 4 -3 2 -12 -4 -20 -9 -9 -8 -13 0 -13 6 0 11
5 11 10 0 6 5 10 11 10 5 0 7 -5 3 -11 -4 -7 1 -7 15 1 17 9 26 9 37 -1 8 -6
14 -7 14 -2 0 12 38 14 45 2 4 -5 14 -5 26 1 11 6 17 15 14 20 -3 4 -2 10 2
13 5 2 1 2 -7 0 -11 -3 -12 -1 -3 8 6 6 16 8 22 5 12 -8 5 -33 -18 -61 -16
-20 -15 -20 5 -2 11 9 24 14 29 10 4 -5 5 1 1 13 -4 15 -2 21 9 21 8 0 17 -8
20 -17 3 -9 12 -17 20 -17 8 0 12 4 9 9 -3 4 -2 8 3 9 4 0 16 2 26 4 12 2 17
-1 14 -9 -3 -7 1 -13 9 -13 17 0 18 13 3 23 -17 10 12 25 35 18 11 -4 16 -2
12 4 -3 5 2 16 11 23 12 10 15 11 9 1 -6 -9 -1 -11 18 -8 15 3 30 -2 38 -12
11 -13 11 -14 -1 -7 -9 5 -12 4 -8 -2 3 -5 0 -10 -8 -10 -8 0 -12 5 -8 10 3 5
-5 4 -17 -3 -18 -10 -21 -10 -15 2 3 7 0 4 -9 -6 -13 -17 -18 -17 -33 -5 -16
12 -17 12 -6 -2 7 -9 9 -19 5 -24 -4 -4 3 -2 16 4 18 10 27 10 38 0 8 -6 14
-7 14 -2 0 12 38 14 45 2 4 -5 14 -5 26 1 11 6 17 15 14 20 -3 4 -2 10 2 13 5
2 1 2 -7 0 -11 -3 -12 -1 -3 8 6 6 16 8 22 5 12 -8 5 -33 -18 -61 -16 -20 -15
-20 5 -2 11 9 24 14 29 10 4 -5 5 1 1 13 -4 15 -2 21 9 21 8 0 17 -8 20 -17 3
-9 12 -17 20 -17 8 0 12 4 9 9 -3 4 -2 8 3 9 4 0 16 2 26 4 12 2 17 -1 14 -9
-3 -7 1 -13 9 -13 17 0 18 9 3 24 -8 8 2 11 35 10 41 0 46 -3 40 -20 -4 -13
-2 -17 5 -13 6 4 11 14 11 22 0 8 4 13 8 10 4 -2 14 -1 21 3 9 6 10 11 2 15
-6 4 -11 3 -11 -2 0 -5 -6 -9 -13 -9 -8 0 -14 6 -14 13 0 7 4 11 9 8 5 -3 16
0 24 7 12 10 15 10 12 -1 -2 -7 3 -15 11 -18 8 -2 11 0 8 5 -4 6 15 9 48 8 35
-2 52 1 48 8 -3 6 -1 7 6 3 6 -4 9 -12 6 -17 -4 -5 -1 -9 4 -9 6 0 11 5 11 12
0 6 3 8 7 5 3 -4 13 -1 22 5 13 10 14 10 4 -2 -19 -21 -15 -35 5 -18 9 9 27
14 40 12 14 -2 21 0 17 6 -4 6 1 7 11 3 11 -4 13 -8 6 -11 -7 -2 -10 -8 -7
-12 3 -5 12 -7 20 -4 8 4 12 10 9 15 -3 5 3 6 12 2 13 -5 15 -3 9 7 -5 9 -4
11 4 6 6 -4 9 -12 6 -17 -7 -10 8 -12 18 -2 4 3 19 7 34 9 16 1 22 0 16 -3
-20 -7 -15 -19 7 -20 11 -1 19 4 17 10 -1 7 6 11 17 9 13 -2 16 1 10 10 -6 10
-5 11 8 1 8 -7 17 -11 20 -8 3 3 11 -2 19 -12 12 -14 12 -16 0 -8 -9 5 -12 4
-8 -2 3 -5 0 -10 -8 -10 -8 0 -12 5 -8 10 3 5 -5 4 -17 -3 -18 -10 -21 -10
-15 2 3 7 0 5 -8 -5 -13 -16 -19 -17 -39 -6 -35 19 -52 21 -37 3 7 -8 7 -14 1
-14 -5 0 -15 7 -22 15 -7 8 -18 15 -24 15 -7 0 -6 -4 2 -9 11 -7 11 -9 -2 -14
-8 -3 -17 -3 -19 1 -2 4 -2 1 -1 -5 5 -20 -14 -15 -20 5 -4 13 -4 13 -3 -3 1
-11 -2 -26 -7 -34 -6 -9 -1 -8 16 3 14 9 28 13 33 9 4 -5 5 -2 1 5 -6 9 -1 11
18 8 14 -3 31 -8 37 -12 7 -4 9 -3 5 4 -3 6 -2 13 4 17 9 6 14 -8 11 -28 -1
-4 10 0 24 9 20 13 28 14 40 4 8 -7 15 -8 15 -3 0 12 38 14 45 2 4 -5 14 -5
26 1 20 11 26 1 9 -16 -7 -7 -6 -11 4 -11 8 0 13 3 11 6 -2 4 3 17 11 31 7 14
14 22 15 18 5 -24 4 -34 -6 -41 -6 -5 -4 -7 5 -4 8 2 14 14 14 26 -1 12 3 20
10 18 6 -2 10 -13 8 -23 -2 -11 0 -15 5 -8 15 20 42 24 52 6 9 -14 11 -14 12
-2 1 8 1 18 0 22 0 4 8 6 19 5 22 -1 27 -13 8 -19 -8 -3 -6 -7 4 -10 12 -5 15
-1 14 16 -2 13 -6 28 -10 34 -5 8 -1 10 10 5 12 -4 15 -3 10 5 -5 8 -1 10 10
5 11 -4 13 -8 6 -11 -7 -2 -10 -8 -7 -12 3 -5 12 -7 20 -4 8 4 12 10 9 15 -3
5 3 6 12 2 13 -5 15 -3 9 7 -5 9 -4 11 4 6 6 -4 9 -12 6 -17 -4 -5 -2 -9 4 -9
5 0 13 5 16 10 4 6 11 8 16 4 5 -3 16 -1 23 5 10 8 17 7 26 -4 13 -16 35 -21
26 -7 -3 5 1 9 9 9 8 0 21 -15 30 -34 18 -38 21 -39 29 -17 3 8 2 13 -3 10 -5
-3 -11 1 -15 9 -3 8 -1 15 5 15 6 0 8 4 5 8 -2 4 10 7 27 7 18 -1 37 2 44 7
16 13 46 -33 37 -57 -5 -13 -4 -16 4 -11 7 4 12 14 12 22 0 8 5 14 11 14 7 0
8 -7 4 -17 -12 -32 -14 -54 -4 -47 6 3 8 8 5 11 -3 3 4 23 15 45 17 32 23 37
35 28 15 -14 18 -21 7 -19 -20 3 -30 -2 -30 -17 0 -15 1 -15 12 0 7 8 15 13
18 9 4 -3 2 -12 -4 -20 -9 -9 -8 -13 0 -13 6 0 11 5 11 10 0 6 5 10 11 10 5 0
7 -5 3 -11 -4 -7 1 -7 15 1 17 9 26 9 37 -1 8 -6 14 -7 14 -2 0 12 38 14 45 2
4 -5 14 -5 26 1 11 6 17 15 14 20 -3 4 -2 10 2 13 5 2 1 2 -7 0 -11 -3 -12 -1
-3 8 6 6 16 8 22 5 12 -8 5 -33 -18 -61 -16 -20 -15 -20 5 -2 11 9 24 14 29
10 4 -5 5 1 1 13 -4 15 -2 21 9 21 8 0 17 -8 20 -17 3 -9 12 -17 20 -17 8 0
12 4 9 9 -3 4 -2 8 3 9 4 0 16 2 26 4 12 2 17 -1 14 -9 -3 -7 1 -13 9 -13 17
0 18 13 3 23 -17 10 12 25 35 18 11 -4 16 -2 12 4 -3 5 2 16 11 23 12 10 15
11 9 1 -6 -9 -1 -11 18 -8 15 3 30 -2 38 -12 11 -13 11 -14 -1 -7 -9 5 -12 4
-8 -2 3 -5 0 -10 -8 -10 -8 0 -12 5 -8 10 3 5 -5 4 -17 -3 -18 -10 -21 -10
-15 2 3 7 0 4 -9 -6 -13 -17 -18 -17 -33 -5 -16 12 -17 12 -6 -2 7 -9 9 -19 5
-24 -4 -4 3 -2 16 4 18 10 27 10 38 0 8 -6 14 -7 14 -2 0 12 38 14 45 2 4 -5
14 -5 26 1 11 6 17 15 14 20 -3 4 -2 10 2 13 5 2 1 2 -7 0 -11 -3 -12 -1 -3 8
6 6 16 8 22 5 12 -8 5 -33 -18 -61 -16 -20 -15 -20 5 -2 11 9 24 14 29 10 4
-5 5 1 1 13 -4 15 -2 21 9 21 8 0 17 -8 20 -17 3 -9 12 -17 20 -17 8 0 12 4 9
9 -3 4 -2 8 3 9 4 0 16 2 26 4 12 2 17 -1 14 -9 -3 -7 1 -13 9 -13 17 0 18 9
3 24 -8 8 2 11 35 10 41 0 46 -3 40 -20 -4 -13 -2 -17 5 -13 6 4 11 14 11 22
0 8 4 13 8 10 4 -2 14 -1 21 3 9 6 10 11 2 15 -6 4 -11 3 -11 -2 0 -5 -6 -9
-13 -9 -8 0 -14 6 -14 13 0 7 4 11 9 8 5 -3 16 0 24 7 12 10 15 10 12 -1 -2
-7 3 -15 11 -18 8 -2 11 0 8 5 -4 6 15 9 48 8 35 -2 52 1 48 8 -3 6 -1 7 6 3
6 -4 9 -12 6 -17 -4 -5 -1 -9 4 -9 6 0 11 5 11 12 0 6 3 8 7 5 3 -4 13 -1 22
5 13 10 14 10 4 -2 -19 -21 -15 -35 5 -18 9 9 27 14 40 12 14 -2 21 0 17 6 -4
6 1 7 11 3 11 -4 13 -8 6 -11 -7 -2 -10 -8 -7 -12 3 -5 12 -7 20 -4 8 4 12 10
9 15 -3 5 3 6 12 2 13 -5 15 -3 9 7 -5 9 -4 11 4 6 6 -4 9 -12 6 -17 -7 -10 8
-12 18 -2 4 3 19 7 34 9 16 1 22 0 16 -3 -20 -7 -15 -19 7 -20 11 -1 19 4 17
10 -1 7 6 11 17 9 13 -2 16 1 10 10 -6 10 -5 11 8 1 8 -7 17 -11 20 -8 3 3 11
-2 19 -12 12 -14 12 -16 0 -8 -9 5 -12 4 -8 -2 3 -5 0 -10 -8 -10 -8 0 -12 5
-8 10 3 5 -5 4 -17 -3 -18 -10 -21 -10 -15 2 3 7 0 5 -8 -5 -13 -16 -19 -17
-39 -6 -35 19 -52 21 -37 3 7 -8 7 -14 1 -14 -5 0 -15 7 -22 15 -7 8 -18 15
-24 15 -7 0 -6 -4 2 -9 11 -7 11 -9 -2 -14 -8 -3 -17 -3 -19 1 -2 4 -2 1 -1
-5 5 -20 -14 -15 -20 5 -4 13 -4 13 -3 -3 1 -11 -2 -26 -7 -34 -6 -9 -1 -8 16
3 14 9 28 13 33 9 4 -5 5 -2 1 5 -6 9 -1 11 18 8 14 -3 31 -8 37 -12 7 -4 9
-3 5 4 -3 6 -2 13 4 17 9 6 14 -8 11 -28 -1 -4 10 0 24 9 20 13 28 14 40 4 8
-7 15 -8 15 -3 0 12 38 14 45 2 4 -5 14 -5 26 1 20 11 26 1 9 -16 -7 -7 -6
-11 4 -11 8 0 13 3 11 6 -2 4 3 17 11 31 7 14 14 22 15 18 5 -24 4 -34 -6 -41
-6 -5 -4 -7 5 -4 8 2 14 14 14 26 -1 12 3 20 10 18 6 -2 10 -13 8 -23 -2 -11
0 -15 5 -8 15 20 42 24 52 6 9 -14 11 -14 12 -2 1 8 1 18 0 22 0 4 8 6 19 5
22 -1 27 -13 8 -19 -8 -3 -6 -7 4 -10 12 -5 15 -1 14 16 -2 13 -6 28 -10 34
-5 8 -1 10 10 5 12 -4 15 -3 10 5 -5 8 -1 10 10 5 11 -4 13 -8 6 -11 -7 -2
-10 -8 -7 -12 3 -5 12 -7 20 -4 8 4 12 10 9 15 -3 5 3 6 12 2 13 -5 15 -3 9 7
-5 9 -4 11 4 6 6 -4 9 -12 6 -17 -4 -5 -2 -9 4 -9 5 0 13 5 16 10 4 6 11 8 16
4 5 -3 16 -1 23 5 10 8 17 7 26 -4 13 -16 35 -21 26 -7 -3 5 1 9 9 9 8 0 21
-15 30 -34 18 -38 21 -39 29 -17 3 8 2 13 -3 10 -5 -3 -11 1 -15 9 -3 8 -1 15
5 15 6 0 8 4 5 8 -2 4 10 7 27 7 18 -1 37 2 44 7 16 13 46 -33 37 -57 -5 -13
-4 -16 4 -11 7 4 12 14 12 22 0 8 5 14 11 14 7 0 8 -7 4 -18 -12 -31 -14 -53
-4 -46 6 3 8 8 5 11 -3 3 4 23 15 45 17 32 23 37 35 28 15 -14 18 -21 7 -19
-20 3 -30 -2 -30 -17 0 -15 1 -15 12 0 7 8 15 13 18 9 4 -3 2 -12 -4 -20 -9
-9 -8 -13 0 -13 6 0 11 5 11 10 0 6 5 10 11 10 5 0 7 -5 3 -11 -4 -7 1 -7 15
1 17 9 26 9 37 -1 8 -6 14 -7 14 -2 0 12 38 14 45 2 4 -5 14 -5 26 1 11 6 17
15 14 20 -3 4 -2 10 2 13 5 2 1 2 -7 0 -11 -3 -12 -1 -3 8 6 6 16 8 22 5 12
-8 5 -33 -18 -61 -16 -20 -15 -20 5 -2 11 9 24 14 29 10 4 -5 5 1 1 13 -4 15
-2 21 9 21 8 0 17 -8 20 -17 3 -9 12 -17 20 -17 8 0 12 4 9 9 -3 4 -2 8 3 9 4
0 16 2 26 4 12 2 17 -1 14 -9 -3 -7 1 -13 9 -13 17 0 18 13 3 23 -17 10 12 25
35 18 11 -4 16 -2 12 4 -3 5 2 16 11 23 12 10 15 11 9 1 -6 -9 -1 -11 18 -8
15 3 30 -2 38 -12 11 -13 11 -14 -1 -7 -9 5 -12 4 -8 -2 3 -5 0 -10 -8 -10 -8
0 -12 5 -8 10 3 5 -5 4 -17 -3 -18 -10 -21 -10 -15 2 3 7 0 4 -9 -6 -13 -17
-18 -17 -33 -5 -16 12 -17 12 -6 -2 7 -9 9 -19 5 -24 -4 -4 3 -2 16 4 18 10
27 10 38 0 8 -6 14 -7 14 -2 0 12 38 14 45 2 4 -5 14 -5 26 1 11 6 17 15 14
20 -3 4 -2 10 2 13 5 2 1 2 -7 0 -11 -3 -12 -1 -3 8 6 6 16 8 22 5 12 -8 5
-33 -18 -61 -16 -20 -15 -20 5 -2 11 9 24 14 29 10 4 -5 5 1 1 13 -4 15 -2 21
9 21 8 0 17 -8 20 -17 3 -9 12 -17 20 -17 8 0 12 4 9 9 -3 4 -2 8 3 9 4 0 16
2 26 4 12 2 17 -1 14 -9 -3 -7 1 -13 9 -13 17 0 18 9 3 24 -8 8 2 11 35 10 41
0 46 -3 40 -20 -4 -13 -2 -17 5 -13 6 4 11 14 11 22 0 8 4 13 8 10 4 -2 14 -1
21 3 9 6 10 11 2 15 -6 4 -11 3 -11 -2 0 -5 -6 -9 -13 -9 -8 0 -14 6 -14 13 0
7 4 11 9 8 5 -3 16 0 24 7 12 10 15 10 12 -1 -2 -7 3 -15 11 -18 8 -2 11 0 8
5 -4 6 15 9 48 8 35 -2 52 1 48 8 -3 6 -1 7 6 3 6 -4 9 -12 6 -17 -4 -5 -1 -9
4 -9 6 0 11 5 11 12 0 6 3 8 7 5 3 -4 13 -1 22 5 13 10 14 10 4 -2 -19 -21
-15 -35 5 -18 9 9 27 14 40 12 14 -2 21 0 17 6 -4 6 1 7 11 3 11 -4 13 -8 6
-11 -7 -2 -10 -8 -7 -12 3 -5 12 -7 20 -4 8 4 12 10 9 15 -3 5 3 6 12 2 13 -5
15 -3 9 7 -5 9 -4 11 4 6 6 -4 9 -12 6 -17 -7 -10 8 -12 18 -2 4 3 19 7 34 9
16 1 22 0 16 -3 -20 -7 -15 -19 7 -20 11 -1 19 4 17 10 -1 7 6 11 17 9 13 -2
16 1 10 10 -6 10 -5 11 8 1 8 -7 17 -11 20 -8 3 3 11 -2 19 -12 12 -14 12 -16
0 -8 -9 5 -12 4 -8 -2 3 -5 0 -10 -8 -10 -8 0 -12 5 -8 10 3 5 -5 4 -17 -3
-18 -10 -21 -10 -15 2 3 7 0 5 -8 -5 -13 -16 -19 -17 -39 -6 -35 19 -52 21
-37 3 7 -8 7 -14 1 -14 -5 0 -15 7 -22 15 -7 8 -18 15 -24 15 -7 0 -6 -4 2 -9
11 -7 11 -9 -2 -14 -8 -3 -17 -3 -19 1 -2 4 -2 1 -1 -5 5 -20 -14 -15 -20 5
-4 13 -4 13 -3 -3 1 -11 -2 -26 -7 -34 -6 -9 -1 -8 16 3 14 9 28 13 33 9 4 -5
5 -2 1 5 -6 9 -1 11 18 8 14 -3 31 -8 37 -12 7 -4 9 -3 5 4 -3 6 -2 13 4 17 9
6 14 -8 11 -28 -1 -4 10 0 24 9 20 13 28 14 40 4 8 -7 15 -8 15 -3 0 12 38 14
45 2 4 -5 14 -5 26 1 20 11 26 1 9 -16 -7 -7 -6 -11 4 -11 8 0 13 3 11 6 -2 4
3 17 11 31 7 14 14 22 15 18 5 -24 4 -34 -6 -41 -6 -5 -4 -7 5 -4 8 2 14 14
14 26 -1 12 3 20 10 18 6 -2 10 -13 8 -23 -2 -11 0 -15 5 -8 15 20 42 24 52 6
9 -14 11 -14 12 -2 1 8 1 18 0 22 0 4 8 6 19 5 22 -1 27 -13 8 -19 -8 -3 -6
-7 4 -10 12 -5 15 -1 14 16 -2 13 -6 28 -10 34 -5 8 -1 10 10 5 12 -4 15 -3
10 5 -5 8 -1 10 10 5 11 -4 13 -8 6 -11 -7 -2 -10 -8 -7 -12 3 -5 12 -7 20 -4
8 4 12 10 9 15 -3 5 3 6 12 2 13 -5 15 -3 9 7 -5 9 -4 11 4 6 6 -4 9 -12 6
-17 -4 -5 -2 -9 4 -9 5 0 13 5 16 10 4 6 11 8 16 4 5 -3 16 -1 23 5 10 8 17 7
26 -4 13 -16 35 -21 26 -7 -3 5 1 9 9 9 8 0 21 -15 30 -34 18 -38 21 -39 29
-17 3 8 2 13 -3 10 -5 -3 -11 1 -15 9 -3 8 -1 15 5 15 6 0 8 4 5 8 -2 4 10 7
27 7 18 -1 37 2 44 7 16 13 46 -33 37 -57 -5 -13 -4 -16 4 -11 7 4 12 14 12
22 0 8 5 14 11 14 7 0 8 -7 4 -17 -12 -32 -14 -54 -4 -47 6 3 8 8 5 11 -3 3 4
23 15 45 17 32 23 37 35 28 15 -14 18 -21 7 -19 -20 3 -30 -2 -30 -17 0 -15 1
-15 12 0 7 8 15 13 18 9 4 -3 2 -12 -4 -20 -9 -9 -8 -13 0 -13 6 0 11 5 11 10
0 6 5 10 11 10 5 0 7 -5 3 -11 -4 -7 1 -7 15 1 17 9 26 9 37 -1 8 -6 14 -7 14
-2 0 12 38 14 45 2 4 -5 14 -5 26 1 11 6 17 15 14 20 -3 4 -2 10 2 13 5 2 1 2
-7 0 -11 -3 -12 -1 -3 8 6 6 16 8 22 5 12 -8 5 -33 -18 -61 -16 -20 -15 -20 5
-2 11 9 24 14 29 10 4 -5 5 1 1 13 -4 15 -2 21 9 21 8 0 17 -8 20 -17 3 -9 12
-17 20 -17 8 0 12 4 9 9 -3 4 -2 8 3 9 4 0 16 2 26 4 12 2 17 -1 14 -9 -3 -7
1 -13 9 -13 17 0 18 13 3 23 -17 10 12 25 35 18 11 -4 16 -2 12 4 -3 5 2 16
11 23 12 10 15 11 9 1 -6 -9 -1 -11 18 -8 15 3 30 -2 38 -12 11 -13 11 -14 -1
-7 -9 5 -12 4 -8 -2 3 -5 0 -10 -8 -10 -8 0 -12 5 -8 10 3 5 -5 4 -17 -3 -18
-10 -21 -10 -15 2 3 7 0 4 -9 -6 -13 -17 -18 -17 -33 -5 -16 12 -17 12 -6 -2
7 -9 9 -19 5 -24 -4 -4 3 -2 16 4 18 10 27 10 38 0 8 -6 14 -7 14 -2 0 12 38
14 45 2 4 -5 14 -5 26 1 11 6 17 15 14 20 -3 4 -2 10 2 13 5 2 1 2 -7 0 -11
-3 -12 -1 -3 8 6 6 16 8 22 5 12 -8 5 -33 -18 -61 -16 -20 -15 -20 5 -2 11 9
24 14 29 10 4 -5 5 1 1 13 -4 15 -2 21 9 21 8 0 17 -8 20 -17 3 -9 12 -17 20
-17 8 0 12 4 9 9 -3 4 -2 8 3 9 4 0 16 2 26 4 12 2 17 -1 14 -9 -3 -7 1 -13 9
-13 17 0 18 13 3 23 -16 10 12 25 34 18 11 -4 17 -1 15 8 -2 8 4 12 16 10 13
-2 16 1 10 10 -6 10 -5 11 8 1 8 -7 17 -11 20 -8 3 3 11 -2 19 -12 12 -14 12
-16 0 -8 -9 5 -12 4 -8 -2 3 -5 0 -10 -8 -10 -8 0 -12 5 -8 10 3 5 -5 4 -17
-3 -18 -10 -21 -10 -15 2 3 7 0 4 -9 -6 -13 -17 -18 -17 -33 -5 -16 12 -17 12
-6 -2 7 -9 9 -19 5 -24 -4 -4 3 -2 16 4 18 10 27 10 38 0 8 -6 14 -7 14 -2 0
12 38 14 45 2 4 -5 14 -5 26 1 11 6 17 15 14 20 -3 4 -2 10 2 13 5 2 1 2 -7 0
-11 -3 -12 -1 -3 8 6 6 16 8 22 5 12 -8 5 -33 -18 -61 -16 -20 -15 -20 5 -2
11 9 24 14 29 10 4 -5 5 1 1 13 -4 15 -2 21 9 21 8 0 17 -8 20 -17 3 -9 12
-17 20 -17 8 0 12 4 9 9 -3 4 -2 8 3 9 4 0 16 2 26 4 12 2 17 -1 14 -9 -3 -7
1 -13 9 -13 17 0 18 13 3 23 -17 10 12 25 35 18 11 -4 16 -2 12 4 -3 5 2 16
11 23 12 10 15 11 9 1 -6 -9 -1 -11 18 -8 15 3 30 -2 38 -12 11 -13 11 -14 -1
-7 -9 5 -12 4 -8 -2 3 -5 0 -10 -8 -10 -8 0 -12 5 -8 10 3 5 -5 4 -17 -3 -18
-10 -21 -10 -15 2 3 7 0 4 -9 -6 -13 -17 -18 -17 -33 -5 -16 12 -17 12 -6 -2
7 -9 9 -19 5 -24 -4 -4 3 -2 16 4 18 10 27 10 38 0 8 -6 14 -7 14 -2 0 12 38
14 45 2 4 -5 14 -5 26 1 11 6 17 15 14 20 -3 4 -2 10 2 13 5 2 1 2 -7 0 -11
-3 -12 -1 -3 8 6 6 16 8 22 5 12 -8 5 -33 -18 -61 -16 -20 -15 -20 5 -2 11 9
24 14 29 10 4 -5 5 1 1 13 -4 15 -2 21 9 21 8 0 17 -8 20 -17 3 -9 12 -17 20
-17 8 0 12 4 9 9 -3 4 -2 8 3 9 4 0 16 2 26 4 12 2 17 -1 14 -9 -3 -7 1 -13 9
-13 17 0 18 9 3 24 -8 8 2 11 35 10 41 0 46 -3 40 -20 -4 -13 -2 -17 5 -13 6
4 11 14 11 22 0 8 4 13 8 10 4 -2 14 -1 21 3 9 6 10 11 2 15 -6 4 -11 3 -11
-2 0 -5 -6 -9 -13 -9 -8 0 -14 6 -14 13 0 7 4 11 9 8 5 -3 16 0 24 7 12 10 15
10 12 -1 -2 -7 3 -15 11 -18 8 -2 11 0 8 5 -4 6 15 9 48 8 35 -2 52 1 48 8 -3
6 -1 7 6 3 6 -4 9 -12 6 -17 -4 -5 -1 -9 4 -9 6 0 11 5 11 12 0 6 3 8 7 5 3
-4 13 -1 22 5 13 10 14 10 4 -2 -19 -21 -15 -35 5 -18 9 9 27 14 40 12 14 -2
21 0 17 6 -4 6 1 7 11 3 11 -4 13 -8 6 -11 -7 -2 -10 -8 -7 -12 3 -5 12 -7 20
-4 8 4 12 10 9 15 -3 5 3 6 12 2 13 -5 15 -3 9 7 -5 9 -4 11 4 6 6 -4 9 -12 6
-17 -7 -10 8 -12 18 -2 4 3 19 7 34 9 16 1 22 0 16 -3 -20 -7 -15 -19 7 -20
11 -1 19 4 17 10 -1 7 6 11 17 9 13 -2 16 1 10 10 -6 10 -5 11 8 1 8 -7 17
-11 20 -8 3 3 11 -2 19 -12 12 -14 12 -16 0 -8 -9 5 -12 4 -8 -2 3 -5 0 -10
-8 -10 -8 0 -12 5 -8 10 3 5 -5 4 -17 -3 -18 -10 -21 -10 -15 2 3 7 0 5 -8 -5
-13 -16 -19 -17 -39 -6 -35 19 -52 21 -37 3 7 -8 7 -14 1 -14 -5 0 -15 7 -22
15 -7 8 -18 15 -24 15 -7 0 -6 -4 2 -9 11 -7 11 -9 -2 -14 -8 -3 -17 -3 -19 1
-2 4 -2 1 -1 -6 5 -19 -14 -14 -20 6 -4 13 -4 13 -3 -3 1 -11 -2 -26 -7 -34
-6 -9 -1 -8 16 3 14 9 28 13 33 9 4 -5 5 -2 1 5 -6 9 -1 11 18 8 14 -3 31 -8
37 -12 7 -4 9 -3 5 4 -3 6 -2 13 4 17 9 6 14 -8 11 -28 -1 -4 10 0 24 9 20 13
28 14 40 4 8 -7 15 -8 15 -3 0 12 38 14 45 2 4 -5 14 -5 26 1 20 11 26 1 9
-16 -7 -7 -6 -11 4 -11 8 0 13 3 11 6 -2 4 3 17 11 31 7 14 14 22 15 18 5 -24
4 -34 -6 -41 -6 -5 -4 -7 5 -4 8 2 14 14 14 26 -1 12 3 20 10 18 6 -2 10 -13
8 -23 -2 -11 0 -15 5 -8 15 20 42 24 52 6 9 -14 11 -14 12 -2 1 8 1 18 0 22 0
4 8 6 19 5 22 -1 27 -13 8 -19 -8 -3 -6 -7 4 -10 12 -5 15 -1 14 16 -2 13 -6
28 -10 34 -5 8 -1 10 10 5 12 -4 15 -3 10 5 -5 8 -1 10 10 5 11 -4 13 -8 6
-11 -7 -2 -10 -8 -7 -12 3 -5 12 -7 20 -4 8 4 12 10 9 15 -3 5 3 6 12 2 13 -5
15 -3 9 7 -5 9 -4 11 4 6 6 -4 9 -12 6 -17 -4 -5 -2 -9 4 -9 5 0 13 5 16 10 4
6 11 8 16 4 5 -3 16 -1 23 5 10 8 17 7 26 -4 14 -17 35 -21 25 -5 -4 6 -1 9 7
8 18 -4 40 -36 34 -51 -3 -7 -7 -3 -11 11 -4 12 -11 22 -16 22 -5 0 -4 -11 2
-24 12 -26 45 -31 54 -8 2 7 1 11 -4 8 -5 -3 -11 1 -15 9 -3 8 -1 15 5 15 6 0
8 4 5 8 -3 5 11 8 30 7 19 -1 37 2 40 7 7 11 34 -10 34 -26 0 -6 -4 -5 -9 3
-5 8 -11 9 -15 3 -3 -5 -22 -8 -41 -6 -33 3 -34 2 -19 -14 21 -20 81 -27 64
-7 -9 11 -7 14 9 12 16 -1 19 -6 15 -20 -4 -13 -2 -17 5 -12 7 4 10 20 7 36
-2 16 0 27 4 24 5 -3 12 -1 15 5 5 8 11 8 20 0 8 -7 18 -9 24 -6 5 3 8 -2 6
-11 -2 -10 -4 -22 -4 -26 -1 -5 -6 -5 -12 -1 -8 4 -7 9 2 16 11 8 11 9 -1 5
-8 -2 -14 -10 -12 -17 2 -8 -3 -10 -14 -6 -14 5 -15 4 -4 -9 7 -9 16 -12 19
-7 3 5 16 8 28 7 17 -1 20 2 13 10 -8 9 -4 13 15 13 14 0 25 -4 25 -9 0 -5 5
-9 11 -9 8 0 8 5 -1 15 -7 8 -19 14 -28 13 -8 -2 -17 2 -19 7 -4 12 59 11 79
-1 7 -4 4 3 -7 16 l-20 23 23 -12 c12 -6 22 -8 22 -3 0 5 -10 14 -22 20 -13 6
-17 11 -10 11 9 1 10 6 2 20 -6 13 -7 22 0 26 5 3 8 20 7 38 -2 19 3 40 12 51
15 18 15 19 -2 13 -11 -4 -16 -3 -12 4 4 6 13 8 21 5 7 -3 16 -1 19 4 6 9 -9
15 -29 11 -5 -1 -3 6 5 15 14 18 14 21 -3 41 -7 9 -6 14 5 19 10 3 14 17 12
39 -1 19 1 32 5 30 4 -3 13 2 19 9 10 11 8 17 -6 25 -10 6 -13 11 -6 11 6 0
10 9 8 20 -2 11 -1 19 3 19 19 -3 23 2 12 16 -9 10 -9 15 -1 15 6 0 11 -4 11
-10 0 -6 10 -5 25 2 14 6 25 17 25 24 0 7 10 20 23 30 14 11 16 14 5 11 -10
-4 -20 -2 -23 2 -7 12 21 22 43 15 11 -4 13 -3 5 3 -6 5 -19 22 -28 38 -13 23
-16 25 -12 7 4 -15 1 -20 -6 -15 -7 4 -6 -1 2 -10 7 -9 10 -17 5 -18 -5 0 -20
-2 -34 -5 -17 -3 -21 -1 -11 5 7 5 10 14 7 20 -5 7 -2 10 6 9 8 -2 13 6 12 19
0 12 3 20 7 17 14 -8 28 30 18 49 -8 13 -7 15 7 10 13 -5 16 -3 11 10 -4 10
-2 16 6 14 6 -1 13 8 15 21 2 12 8 22 13 22 6 0 7 4 4 10 -3 5 -1 19 6 31 9
17 13 19 20 8 5 -8 9 -11 10 -6 5 26 4 34 -5 47 -8 12 -8 13 4 3 19 -18 35
-16 20 2 -20 24 12 57 58 58 6 0 12 3 12 7 0 15 -14 19 -34 9 -20 -10 -20 -9
-2 5 10 9 22 13 27 11 4 -3 9 1 12 7 3 10 8 10 18 -1 12 -12 12 -13 0 -6 -10
6 -12 4 -6 -5 6 -9 4 -11 -6 -5 -8 5 -5 -1 5 -13 21 -24 32 -29 20 -10 -5 8
-1 9 12 5 18 -7 18 -6 2 6 -10 8 -15 17 -11 20 3 4 13 1 21 -6 11 -8 14 -8 9
0 -4 6 -3 14 3 18 5 3 10 15 10 26 0 10 5 19 11 19 6 0 8 -7 4 -17 -5 -14 -4
-16 6 -6 10 10 9 17 -9 33 -12 12 -22 16 -22 10 0 -6 -4 -9 -9 -5 -5 3 -13 0
-17 -6 -4 -8 -3 -9 4 -5 19 11 14 -9 -6 -27 -12 -11 -22 -13 -32 -7 -13 9 -13
10 0 11 8 1 19 1 24 0 5 -1 6 4 3 12 -3 8 -2 19 2 25 6 10 16 13 61 21 3 1 -2
6 -10 11 -13 9 -13 10 0 10 13 0 13 1 0 10 -8 5 -12 11 -10 14 3 2 14 -2 24
-10 19 -13 19 -14 0 -36 -10 -12 -13 -18 -6 -14 6 4 12 2 12 -3 0 -6 8 -11 18
-11 14 0 15 2 2 10 -13 8 -13 10 1 10 24 0 29 22 12 45 -7 11 -16 19 -19 17
-2 -2 -10 -1 -17 1 -9 4 -9 6 1 6 7 1 10 6 7 11 -4 6 -1 9 7 8 7 -2 12 2 11 9
-2 8 4 10 14 6 11 -4 14 -3 9 5 -4 7 -2 12 3 12 6 0 11 -5 11 -11 0 -5 4 -8 9
-5 4 3 7 16 6 29 -3 21 1 24 26 22 17 -2 29 2 28 9 -3 25 2 36 16 36 17 0 20
-16 5 -25 -6 -4 -8 -11 -5 -16 4 -5 0 -9 -7 -9 -11 0 -10 -2 0 -9 11 -7 11 -9
-2 -14 -8 -3 -14 -15 -13 -26 0 -11 5 -18 9 -15 4 3 4 12 1 21 -4 11 -3 14 5
9 7 -4 12 -2 12 4 0 6 5 8 13 4 8 -5 8 -3 -2 9 -11 14 -11 18 2 23 9 3 13 12
10 19 -2 8 2 24 11 37 9 12 16 19 16 14 0 -5 6 -3 14 3 10 9 16 8 26 -3 10
-13 8 -15 -8 -11 -12 2 -23 -3 -26 -11 -3 -9 -10 -12 -16 -9 -5 3 -10 1 -10
-5 0 -6 11 -8 24 -6 14 2 27 -1 30 -7 3 -7 3 -1 0 13 -4 14 -3 22 1 18 5 -4
14 -3 21 3 8 7 14 7 19 -1 3 -5 1 -10 -6 -10 -7 0 -10 -3 -6 -6 3 -3 11 -3 17
1 8 5 8 11 -1 21 -6 7 -15 11 -20 8 -8 -5 -13 10 -10 30 1 5 -6 5 -16 1 -37
-14 -47 -16 -28 -4 11 7 23 17 28 23 5 8 10 6 17 -4 9 -13 14 -7 11 12 -2 12
39 29 51 22 7 -5 9 -2 5 9 -4 12 -1 15 14 12 15 -3 19 0 15 11 -3 8 -2 13 3 9
5 -3 12 1 15 7 3 7 3 3 0 -9 -4 -17 -2 -21 10 -17 8 3 13 14 11 25 -3 15 -1
17 13 10 24 -13 53 5 46 27 -5 13 -4 14 4 3 8 -11 10 -11 14 0 3 9 6 8 11 -5
5 -11 3 -15 -5 -10 -7 5 -8 3 -3 -6 6 -9 4 -11 -5 -5 -9 6 -11 4 -5 -5 5 -9 4
-11 -3 -6 -7 4 -12 2 -12 -4 0 -6 -5 -8 -12 -4 -7 4 -8 3 -4 -4 4 -7 2 -12 -3
-12 -6 0 -11 5 -11 10 0 6 -5 10 -11 10 -8 0 -7 -6 2 -17 12 -14 12 -16 0 -8
-10 5 -12 4 -7 -3 5 -8 2 -10 -8 -6 -9 3 -16 1 -16 -5 0 -6 3 -10 8 -10 19 3
26 -2 12 -11 -11 -7 -18 -3 -28 13 -8 13 -11 15 -8 5 3 -11 0 -17 -6 -15 -7 1
-12 -4 -13 -12 0 -8 -5 -16 -11 -18 -7 -2 -11 4 -10 13 0 9 -6 19 -14 22 -13
5 -13 3 0 -14 11 -15 11 -16 0 -7 -18 17 -35 17 -23 1 6 -7 9 -21 8 -30 -2 -9
4 -23 13 -30 14 -10 15 -10 5 1 -9 11 -5 19 24 38 29 20 38 22 51 11 9 -8 13
-8 9 -2 -4 7 0 15 8 18 8 3 14 11 13 17 -2 6 3 14 10 16 7 3 10 -1 6 -10 -3
-8 -1 -18 5 -22 7 -4 8 0 4 11 -5 13 -3 15 8 9 11 -7 12 -6 2 7 -13 15 -8 28
9 28 5 0 7 -4 4 -8 -3 -5 1 -9 9 -9 11 0 12 4 4 13 -6 7 -6 14 -1 18 11 7 26
-22 23 -44 -1 -10 3 -8 10 4 9 15 9 21 1 24 -7 2 -12 8 -12 13 0 6 4 8 9 5 5
-3 12 2 15 11 6 14 9 14 30 -6 17 -16 23 -18 23 -7 0 8 -5 12 -10 9 -5 -3 -7
0 -5 8 3 8 12 13 22 11 9 -2 16 4 16 14 0 13 3 14 14 5 11 -9 17 -8 28 3 10
10 20 11 34 4 18 -9 18 -8 -1 7 -11 9 -20 21 -20 27 0 6 -5 13 -11 15 -6 2
-11 -3 -11 -12 0 -8 5 -15 10 -15 18 0 -4 -15 -24 -16 -37 -3 -40 -4 -33 -15
4 -7 -1 -7 -16 1 -12 6 -24 9 -28 6 -3 -3 0 -6 6 -6 7 0 12 -4 12 -10 0 -15
-17 -12 -23 4 -3 8 1 22 9 33 9 10 13 13 10 7 -3 -7 5 -11 21 -11 24 -1 25 1
10 12 -16 11 -16 13 -2 19 9 3 14 2 11 -3 -3 -5 1 -15 10 -22 13 -11 15 -10
12 5 -1 10 6 24 18 32 18 13 23 12 40 -8 10 -12 14 -18 7 -15 -6 4 -15 2 -19
-4 -4 -7 -3 -9 4 -5 6 3 18 -4 26 -16 9 -12 19 -18 23 -14 4 4 3 10 -2 14 -14
10 -18 42 -6 42 5 0 13 -9 16 -20 3 -11 10 -20 15 -20 5 0 6 8 3 18 -6 15 -5
15 10 3 9 -7 14 -18 10 -24 -4 -6 -1 -7 6 -2 9 5 10 10 2 18 -16 16 -14 32 2
18 10 -8 17 -7 25 1 9 9 15 9 23 1 16 -16 39 -5 39 18 0 13 7 19 21 19 11 0
17 -5 14 -10 -4 -6 -11 -8 -16 -5 -5 3 -6 -1 -3 -10 6 -13 9 -12 23 7 19 28
23 48 9 48 -6 0 -7 -8 -4 -17 5 -15 4 -15 -9 1 -8 11 -15 15 -15 10 0 -14 -40
-32 -63 -28 -11 1 -15 -2 -10 -9 4 -7 -2 -5 -12 3 -10 8 -16 10 -12 3 4 -6 4
-14 -1 -17 -4 -2 -9 4 -9 15 -2 16 9 25 20 17 2 -2 11 3 20 11 10 7 17 10 17
6 0 -4 8 -1 18 6 15 13 16 12 3 -3 -16 -21 1 -25 18 -4 6 7 21 12 34 12 12 -1
29 2 37 8 8 6 12 6 8 2 -11 -13 31 -46 49 -39 12 5 14 3 8 -8 -8 -12 -6 -12 8
0 19 15 23 1 5 -17 -7 -7 -9 -12 -5 -12 3 0 14 11 22 24 13 19 14 29 6 45 -10
18 -8 19 14 15 14 -2 34 0 44 6 13 7 21 7 24 0 3 -6 4 -5 2 2 -1 7 -7 12 -12
11 -5 -1 -10 7 -10 18 -1 10 3 19 8 19 6 0 7 -5 4 -10 -3 -6 -2 -10 3 -10 5 0
14 12 20 26 7 14 16 23 21 20 5 -3 12 1 15 10 3 9 2 12 -5 9 -18 -12 -40 15
-29 36 8 15 7 17 -4 13 -15 -6 -13 -43 3 -53 5 -4 4 -13 -3 -23 -8 -11 -17
-14 -27 -7 -10 6 -10 9 -1 9 6 0 12 5 12 11 0 5 -4 8 -8 5 -10 -6 -9 75 1 92
5 7 3 12 -5 12 -9 0 -9 3 2 10 8 5 10 10 5 10 -6 0 -10 54 -10 144 0 79 3 142
7 140 5 -3 8 0 8 5 0 6 -6 11 -12 11 -9 0 -8 4 2 10 13 9 13 10 0 10 -13 0
-13 1 0 10 8 5 10 10 5 10 -6 0 -11 15 -11 34 0 19 4 32 8 30 4 -3 8 0 8 5 0
6 -6 11 -12 11 -9 0 -8 4 2 10 13 9 13 10 0 10 -12 0 -13 2 -1 9 9 6 10 10 2
14 -7 3 -7 4 1 2 7 -1 12 -8 10 -15 -2 -7 3 -10 12 -7 8 3 17 1 20 -6 3 -9 5
-9 5 0 1 7 -8 17 -18 23 -11 5 -18 18 -16 27 2 10 4 23 5 28 1 6 5 1 10 -10 9
-21 11 -16 14 37 1 15 -1 25 -5 22 -4 -2 -9 2 -12 8 -2 7 5 18 16 24 17 10 18
12 3 17 -11 5 -15 3 -10 -4 4 -7 1 -10 -7 -7 -15 6 -15 11 -4 41 4 9 3 17 -2
17 -5 0 -10 -6 -11 -12 0 -7 -3 -23 -6 -36 -3 -12 -2 -20 2 -18 5 3 8 -5 9
-17 0 -12 -1 -16 -4 -9 -3 6 -8 10 -12 8 -4 -3 -7 11 -7 30 0 19 5 34 11 34 5
0 3 5 -5 10 -13 9 -13 10 0 10 13 0 13 1 0 10 -10 6 -11 10 -2 10 6 0 12 5 12
11 0 5 -4 8 -8 5 -5 -3 -9 1 -9 9 0 8 4 15 8 15 10 0 20 -30 14 -40 -6 -10 35
-4 44 6 3 4 -1 5 -10 1 -17 -6 -44 35 -32 47 9 9 25 7 19 -2 -2 -4 0 -14 6
-22 8 -12 9 -12 4 3 -3 10 0 17 7 17 7 1 3 6 -9 13 -12 7 -19 18 -17 25 3 6 0
12 -6 12 -5 0 -8 -9 -6 -19 3 -14 -1 -18 -12 -14 -11 4 -11 8 -3 13 9 6 9 9
-1 13 -10 4 -10 6 -1 6 6 1 12 6 12 12 0 5 -4 8 -8 5 -5 -3 -9 1 -9 8 0 8 11
14 24 14 20 0 21 -3 11 -16 -12 -14 -11 -14 9 -1 l23 14 -25 13 c-24 12 -26
32 -4 32 6 0 7 -5 3 -12 -4 -7 -3 -8 4 -4 15 9 -3 46 -21 45 -9 0 -8 -2 1 -6
10 -4 10 -8 1 -19 -6 -8 -17 -14 -23 -14 -6 0 -4 5 4 10 10 6 11 13 5 18 -12
8 -15 133 -3 126 4 -3 8 0 8 5 0 6 -6 11 -12 11 -9 0 -8 4 2 10 13 9 13 10 0
10 -12 0 -13 2 -1 9 9 6 10 10 2 14 -7 3 -7 4 1 2 7 -1 12 -8 10 -14 -3 -15 9
-13 32 4 11 8 14 15 8 15 -7 0 -18 11 -24 25 -6 14 -17 25 -25 25 -7 0 -13 5
-13 11 0 5 6 7 13 3 7 -5 6 0 -3 11 -9 11 -10 16 -2 11 6 -4 12 -3 12 3 0 5
-6 11 -12 14 -10 3 -10 9 0 27 8 12 9 19 3 15 -6 -3 -11 1 -11 9 0 9 5 16 10
16 6 0 5 6 -2 14 -7 8 -16 12 -20 9 -5 -2 -8 2 -8 9 0 8 -3 9 -8 3 -9 -13 -55
-14 -64 0 -5 7 -8 7 -8 0 0 -6 -16 -10 -35 -10 -19 0 -35 3 -35 7 0 3 -10 4
-22 0 -21 -5 -22 -4 -8 14 11 15 11 16 0 7 -8 -7 -24 -13 -36 -13 -12 0 -25 6
-27 13 -4 9 -6 9 -6 0 -1 -9 -9 -9 -31 -2 -16 6 -28 15 -25 19 3 5 -3 7 -13 5
-24 -4 -115 38 -105 49 4 5 1 7 -9 3 -22 -8 -29 2 -18 24 7 12 6 20 -2 25 -6
4 -8 3 -5 -2 3 -6 2 -16 -2 -22 -10 -16 -41 -5 -41 14 0 8 -7 14 -15 14 -20 0
-86 60 -79 71 3 5 -3 6 -12 2 -11 -4 -15 -2 -11 4 4 5 -1 19 -9 29 -9 10 -12
12 -8 4 3 -8 -5 -4 -18 10 -14 14 -24 28 -22 31 2 3 -6 13 -16 22 -19 16 -18
53 1 41 5 -3 6 2 3 11 -6 14 -8 14 -20 -2 -12 -16 -13 -16 -12 10 2 16 10 29
21 33 10 3 16 8 14 11 -8 8 -48 -17 -42 -27 3 -5 0 -12 -6 -16 -7 -4 -9 -3 -5
4 3 6 2 13 -4 17 -6 4 -8 11 -5 16 4 5 1 9 -5 9 -6 0 -9 4 -5 9 3 5 1 12 -4
16 -6 3 -7 13 -4 22 4 11 3 14 -5 9 -7 -4 -12 -2 -12 3 0 6 5 11 10 11 6 0 10
5 10 11 0 5 -4 8 -9 5 -5 -3 -15 2 -22 11 -10 12 -10 14 -1 9 11 -6 14 0 11
20 0 4 5 10 12 15 8 4 10 11 6 16 -9 9 -28 -17 -21 -29 3 -4 0 -8 -6 -8 -7 0
-9 8 -5 20 4 11 3 20 -2 19 -20 -3 -24 2 -12 17 7 9 9 18 3 22 -12 9 -16 62
-4 62 5 0 12 -5 16 -12 5 -7 2 -8 -7 -3 -12 7 -12 6 0 -6 10 -11 15 -11 18 -1
3 6 8 10 12 8 4 -3 7 4 8 14 1 11 -3 22 -8 25 -5 4 -7 10 -5 14 3 3 -3 7 -13
7 -10 0 -18 -6 -18 -12 0 -7 7 -10 16 -7 14 4 14 4 1 -6 -21 -15 -33 -14 -27
4 4 8 2 17 -4 21 -7 4 -6 10 1 19 8 10 8 15 0 20 -7 4 -8 11 -2 18 5 7 8 20 7
29 -2 10 1 21 7 24 6 4 5 10 -3 15 -11 7 -10 9 4 9 9 0 17 5 17 11 0 5 -4 8
-8 5 -4 -2 -8 4 -8 14 0 11 5 16 15 12 10 -4 12 -2 5 9 -15 24 -14 42 1 29 8
-7 15 -7 19 -1 4 5 -4 13 -16 17 l-21 6 23 13 c16 8 19 14 11 20 -9 5 -8 11 3
24 9 10 13 21 9 26 -5 4 -2 4 6 0 11 -6 13 -4 8 9 -4 9 -3 14 2 11 5 -3 12 -1
16 5 3 5 1 10 -4 10 -6 0 -11 5 -11 11 0 8 4 9 13 0 8 -6 17 -8 20 -4 4 3 -1
11 -10 18 -13 9 -13 14 -3 20 9 5 11 4 6 -3 -4 -7 -2 -12 3 -12 6 0 11 5 11
11 0 5 5 7 12 3 8 -5 9 -2 5 10 -4 9 -3 15 2 12 5 -3 12 1 15 10 5 12 1 14
-17 9 -21 -6 -21 -5 2 8 18 11 20 16 10 20 -8 3 0 4 17 3 32 -3 37 5 20 33 -6
9 -5 12 2 7 5 -3 19 5 29 20 10 14 27 27 38 29 11 2 22 4 25 4 3 1 -2 5 -10
11 -8 5 -11 12 -7 17 5 4 12 2 16 -6 5 -7 11 -12 15 -12 19 3 24 -1 22 -16 -2
-9 -8 -19 -14 -21 -7 -2 -9 5 -7 18 2 11 0 18 -6 15 -5 -4 -6 -11 -3 -17 5 -7
2 -8 -6 -3 -8 5 -11 4 -7 -2 7 -11 -16 -25 -43 -27 -8 -1 -15 -5 -15 -11 0 -5
-3 -15 -7 -21 -9 -14 20 -56 33 -48 6 3 8 12 5 20 -3 7 5 20 17 29 12 8 17 15
12 15 -6 0 5 9 23 20 18 11 31 24 28 28 -3 4 4 13 15 20 10 7 19 8 19 3 0 -5
8 -12 17 -15 15 -6 15 -4 -2 14 -10 11 -13 20 -7 20 6 0 14 -5 17 -10 9 -15
27 -1 21 16 -3 8 0 14 7 14 8 0 6 4 -3 10 -13 8 -13 10 1 10 22 0 31 -11 18
-26 -7 -8 -6 -14 2 -20 7 -4 9 -3 5 4 -3 6 -2 13 4 17 6 4 8 11 5 16 -4 5 0 9
8 9 8 0 20 6 27 14 12 15 44 11 35 -4 -3 -5 5 -5 17 -2 19 5 20 7 6 10 -10 2
-18 8 -18 13 0 6 5 7 10 4 6 -3 13 1 16 9 3 9 10 13 15 10 5 -3 7 -10 4 -15
-4 -5 -4 -9 -1 -9 10 0 37 60 31 70 -3 5 3 14 14 20 11 5 22 6 25 1 8 -12 -4
-20 -22 -15 -14 5 -14 4 1 -6 9 -6 22 -8 27 -5 6 3 13 0 16 -9 4 -9 16 -13 35
-11 21 3 28 1 22 -8 -5 -9 -3 -9 8 0 12 10 18 10 30 0 12 -10 12 -10 2 3 -19
21 -16 32 6 18 11 -7 17 -16 14 -22 -3 -5 -1 -6 5 -2 8 5 9 13 2 25 -5 10 -6
22 -2 27 4 5 -1 2 -10 -5 -17 -12 -23 -8 -19 12 1 5 -3 6 -9 2 -6 -3 -8 -10
-5 -15 3 -4 -2 -10 -10 -13 -10 -4 -12 -1 -8 11 8 22 24 32 38 24 5 -4 34 -7
63 -8 45 -1 50 0 35 11 -10 8 -14 17 -9 22 5 4 11 2 13 -4 5 -14 24 -18 22 -5
-4 21 2 32 14 26 6 -4 4 2 -5 13 -21 24 -24 40 -4 24 11 -9 16 -9 22 1 4 7 3
10 -1 5 -5 -4 -16 0 -26 9 -13 12 -19 12 -25 3 -5 -8 -3 -10 7 -4 12 7 12 6 1
-7 -10 -13 -10 -17 3 -21 9 -4 12 -13 9 -22 -5 -12 -10 -13 -18 -5 -14 14 -15
100 -2 100 6 0 4 5 -4 10 -13 9 -13 10 0 10 12 0 12 2 2 9 -11 7 -11 9 1 14
12 4 15 0 12 -14 -3 -15 0 -19 10 -15 8 3 15 0 15 -6 0 -6 3 -8 7 -4 5 4 -1
14 -11 22 -11 8 -16 14 -12 14 5 0 4 6 -1 13 -14 17 -12 45 4 51 10 4 12 -2 8
-22 -4 -22 -4 -23 4 -7 5 11 7 31 4 44 -5 19 -3 22 8 16 8 -4 1 6 -15 24 -23
24 -27 34 -18 43 9 9 12 8 12 -4 0 -21 16 -32 26 -17 4 7 3 9 -3 6 -6 -4 -13
3 -17 16 -3 12 -1 24 6 26 6 2 -4 11 -22 21 -26 14 -29 18 -16 23 12 5 15 3
10 -6 -4 -6 -4 -9 1 -5 4 4 17 3 29 -3 17 -8 16 -6 -4 10 -13 11 -29 19 -34
18 -15 -3 -14 52 1 57 9 4 12 -1 9 -18 -3 -16 1 -27 11 -30 20 -8 23 -8 23 5
0 5 -4 7 -10 4 -14 -9 -12 8 3 24 10 11 9 12 -2 6 -11 -6 -13 -4 -8 9 4 10 3
25 -3 35 -6 13 -4 25 7 40 15 22 14 22 -5 10 -20 -12 -21 -25 -6 -62 6 -17 5
-18 -14 -6 -15 10 -18 16 -9 21 9 6 8 8 -3 8 -13 0 -13 1 0 10 13 9 13 10 0
10 -12 0 -13 2 -1 9 11 7 11 10 0 14 -8 4 -5 5 6 4 15 -1 19 3 17 17 -3 16 -1
18 10 9 10 -8 18 -9 28 -1 12 8 12 9 -2 4 -10 -3 -20 -1 -23 4 -4 6 1 10 9 10
8 0 17 4 20 9 4 5 -3 7 -14 4 -11 -3 -21 0 -21 6 -1 6 -2 17 -3 24 -1 6 -10
11 -21 9 -18 -2 -19 -2 -2 8 9 6 23 8 30 4 8 -5 7 -2 -2 9 -17 21 -4 22 19 2
14 -13 16 -12 16 5 0 10 -4 16 -9 13 -4 -2 -15 1 -23 8 -12 10 -17 10 -27 -1
-9 -10 -9 -11 0 -6 9 5 11 2 7 -8 -9 -24 -20 -19 -20 9 0 22 7 29 28 27 3 -1
9 5 12 14 5 12 2 12 -15 3 -11 -6 -23 -8 -27 -5 -3 3 1 6 9 6 12 0 11 2 -1 11
-13 8 -13 9 2 7 9 -2 16 2 15 7 -1 6 -8 9 -17 7 -13 -2 -13 -2 0 7 13 10 13
11 0 11 -12 0 -13 2 -1 9 9 6 10 10 2 14 -7 3 -7 4 1 3 7 -2 12 -8 11 -14 -3
-12 35 -27 44 -18 4 3 -1 6 -9 6 -27 0 -46 65 -21 74 10 4 12 -1 8 -22 -4 -22
-4 -23 4 -7 5 11 7 31 4 44 -5 19 -3 22 8 16 8 -5 1 7 -16 27 -16 19 -34 33
-40 30 -5 -3 -6 -1 -2 3 13 15 37 14 37 0 0 -19 17 -28 26 -14 4 8 3 9 -4 5
-7 -4 -12 -3 -12 3 0 5 -3 18 -7 28 -6 16 -5 17 13 3 14 -11 14 -8 -3 11 -26
29 -31 48 -8 29 10 -9 15 -9 15 -1 0 6 -5 11 -12 11 -9 0 -9 3 0 12 7 7 12 17
12 22 0 6 -5 4 -10 -6 -6 -9 -18 -15 -27 -14 -14 2 -18 13 -18 49 -1 27 3 47
9 47 6 0 4 5 -4 10 -13 9 -13 10 0 10 13 0 13 1 0 10 -13 9 -13 10 0 10 13 0
13 1 0 11 -13 9 -13 9 0 7 9 -2 16 2 16 7 0 6 -7 9 -16 7 -11 -2 -10 0 3 8 9
6 23 8 30 4 8 -5 7 -2 -2 9 -17 21 -4 22 19 2 14 -13 16 -12 16 4 0 10 -6 17
-12 14 -12 -4 -28 13 -29 32 0 6 8 16 20 23 19 12 19 13 -2 7 -14 -4 -23 -2
-23 4 0 6 5 11 12 11 9 0 9 3 0 12 -9 9 -15 9 -24 -1 -10 -11 -10 -12 -1 -7 9
5 11 2 7 -8 -9 -24 -20 -19 -20 9 0 23 7 30 29 26 4 0 7 4 7 10 0 5 5 7 10 4
6 -3 10 -1 10 5 0 7 -7 9 -15 6 -38 -15 -50 -18 -36 -8 7 5 9 12 5 14 -5 3 -4
3 3 2 7 -2 15 2 19 8 4 7 3 8 -4 4 -7 -4 -12 -2 -12 4 0 6 -4 9 -8 6 -4 -2 -8
22 -8 53 -1 82 -4 87 -58 86 -25 0 -46 4 -46 10 0 5 -5 3 -10 -5 -5 -8 -10
-10 -10 -4 0 9 -22 13 -93 15 -11 0 -15 5 -10 12 5 9 3 9 -8 0 -9 -7 -20 -8
-28 -3 -8 4 -20 6 -28 3 -7 -3 -13 0 -13 5 0 6 -9 9 -20 7 -11 -2 -20 0 -20 5
0 5 -9 7 -20 5 -11 -2 -20 -1 -20 3 0 4 -14 8 -31 9 -17 1 -37 8 -45 14 -8 6
-14 9 -14 5 0 -4 -14 1 -30 9 -17 9 -35 13 -40 10 -6 -3 -10 -1 -10 4 0 6 -8
11 -17 11 -9 0 -28 10 -41 23 -14 12 -21 15 -17 7 7 -12 6 -13 -7 -3 -8 7 -18
10 -21 6 -4 -3 -7 -1 -7 6 0 7 -4 10 -8 7 -5 -3 -19 4 -30 15 -12 10 -24 19
-27 19 -23 -1 -26 2 -22 14 4 9 -2 12 -19 10 -13 -1 -24 2 -24 7 0 5 -7 9 -16
9 -10 0 -14 6 -11 14 4 10 1 13 -9 9 -8 -3 -21 3 -29 13 -8 11 -15 15 -15 9 0
-6 -3 -6 -8 0 -4 6 -20 18 -35 28 -15 10 -25 22 -22 27 3 5 0 12 -6 16 -8 4
-9 3 -5 -4 11 -18 -1 -14 -29 10 -13 11 -22 25 -19 30 3 5 2 8 -3 7 -20 -3
-34 2 -28 11 3 6 0 10 -7 10 -20 0 -91 76 -83 89 3 6 3 11 -2 10 -21 -4 -32 3
-38 21 -4 11 -11 18 -16 15 -5 -4 -9 -3 -9 2 0 7 -13 24 -59 79 -6 7 -3 17 7
28 14 14 14 17 2 14 -8 -2 -14 3 -13 10 2 6 -2 12 -7 12 -14 0 -13 -13 2 -28
9 -9 9 -12 1 -12 -7 0 -15 9 -18 20 -3 11 -11 20 -16 20 -6 0 -7 5 -4 10 3 6
2 10 -2 10 -14 0 -44 58 -34 64 5 4 12 -2 15 -11 4 -14 4 -14 3 2 -2 13 -9 19
-19 17 -11 -2 -23 9 -33 28 -8 16 -12 30 -8 30 5 0 3 4 -3 8 -16 10 -58 96
-43 87 7 -5 10 -3 7 6 -3 8 -12 13 -19 11 -8 -2 -11 0 -7 3 4 4 1 20 -7 35 -8
15 -11 30 -8 34 10 10 35 7 28 -4 -4 -6 -11 -8 -16 -5 -5 3 -6 -1 -3 -10 6
-14 8 -14 19 2 16 22 10 39 -15 39 -10 0 -16 -4 -14 -8 3 -4 0 -8 -6 -8 -7 0
-10 6 -7 14 3 8 -1 20 -9 27 -14 11 -13 14 1 22 10 5 22 4 33 -5 16 -12 16
-11 2 6 -8 10 -15 25 -16 33 -2 9 -8 21 -15 27 -9 8 -9 6 -2 -9 11 -22 6 -48
-7 -40 -5 3 -6 13 -3 22 5 12 3 14 -7 8 -10 -6 -12 -4 -6 10 4 11 2 22 -6 27
-10 6 -10 8 2 8 13 0 13 2 1 9 -8 5 -16 20 -18 33 -2 13 -5 28 -8 35 -5 14
-14 14 -2305 14 -1088 0 -1526 3 -1531 10 -5 8 -8 8 -10 0z m5385 -1563 c-2
-46 -3 -48 -14 -48 -12 0 -9 22 5 32 6 5 4 8 -5 8 -13 0 -13 1 0 10 13 9 13
10 0 10 -13 0 -13 1 0 10 8 5 15 10 16 10 0 0 -1 -15 -2 -32z m1 -248 c-3 -5
-12 -10 -18 -10 -7 0 -6 4 3 10 19 12 23 12 15 0z m9 -28 c9 -15 -9 -31 -24
-22 -13 9 -13 10 0 10 13 0 13 1 0 10 -13 8 -13 10 2 10 9 0 19 -4 22 -8z m-3
-78 c19 -17 15 -50 -8 -58 -8 -3 -12 -10 -8 -15 3 -5 2 -12 -3 -15 -4 -2 -8
15 -8 39 0 24 4 41 8 39 4 -2 5 -13 3 -24 -2 -12 0 -18 5 -15 12 7 4 47 -12
57 -7 4 -9 8 -4 8 5 0 17 -7 27 -16z m-4 -280 c-3 -4 -2 -15 3 -25 7 -12 6
-20 -1 -24 -6 -4 -8 -13 -5 -21 3 -8 0 -11 -8 -8 -7 3 -13 11 -13 19 0 8 4 12
9 9 4 -3 8 0 8 5 0 6 -6 11 -12 11 -9 0 -8 4 2 10 13 9 13 10 0 10 -13 0 -13
1 0 10 17 11 26 13 17 4z m-7 -285 c0 -5 5 -7 11 -3 8 5 8 1 0 -14 -17 -32
-26 -33 -26 -1 -1 16 3 29 7 29 4 0 8 -5 8 -11z m11 -75 c19 -17 15 -50 -8
-58 -8 -3 -12 -10 -8 -15 3 -5 2 -12 -3 -15 -4 -2 -8 15 -8 39 0 24 4 41 8 39
4 -2 5 -13 3 -24 -2 -12 0 -18 5 -15 12 7 4 47 -12 57 -7 4 -9 8 -4 8 5 0 17
-7 27 -16z m-197 -315 c4 6 15 11 24 10 12 0 11 -3 -5 -9 -26 -11 -28 -16 -11
-26 7 -4 8 -3 4 4 -4 7 -1 12 8 12 10 0 13 -6 10 -15 -4 -8 -10 -15 -14 -15
-13 0 -40 30 -40 43 0 8 3 7 9 -2 6 -9 11 -10 15 -2z m-90 -44 c-7 -17 -24
-20 -24 -5 0 6 5 10 12 10 6 0 9 3 5 6 -6 7 -39 -10 -38 -19 3 -20 0 -28 -8
-22 -5 3 -12 1 -16 -4 -3 -6 -12 -8 -20 -4 -8 3 -15 1 -15 -4 0 -6 -12 -15
-26 -21 -14 -7 -23 -8 -19 -2 8 13 -1 13 -25 0 -13 -7 -17 -18 -14 -37 4 -23
3 -25 -11 -13 -13 11 -19 10 -35 -5 -19 -18 -22 -18 -37 -2 -16 16 -16 18 5
40 15 14 22 17 20 7 -2 -9 6 -16 20 -18 12 -2 22 2 22 8 0 7 -6 10 -13 7 -7
-3 -13 3 -13 13 0 19 12 20 35 6 11 -7 13 -5 8 7 -3 9 -1 19 5 23 6 4 8 3 4
-4 -3 -6 -2 -13 4 -17 5 -3 10 1 10 9 0 9 5 16 11 16 5 0 7 4 4 10 -4 6 1 7
11 3 11 -4 15 -3 10 5 -4 7 1 10 13 7 11 -2 25 2 31 10 6 8 22 11 36 9 17 -3
23 -1 19 7 -6 8 -2 8 13 0 13 -7 19 -17 16 -26z m-13070 -35 c4 0 4 6 0 13 -5
7 2 6 16 -4 13 -9 26 -22 28 -30 2 -8 -3 -7 -12 5 -8 10 -19 15 -25 12 -15
-10 -53 13 -45 26 5 7 11 6 19 -5 7 -10 15 -17 19 -17z m12756 -153 c0 -2 -9
-14 -19 -26 -11 -13 -17 -30 -15 -39 5 -14 3 -14 -10 2 -11 14 -12 22 -3 36 6
10 14 17 18 14 4 -2 10 0 14 6 6 10 15 14 15 7z m-225 -566 c-3 -6 -11 -8 -17
-5 -6 4 -5 9 3 15 16 10 23 4 14 -10z m829 -876 c18 -28 11 -32 -18 -10 -14
11 -16 15 -5 15 12 0 12 2 -1 10 -8 5 -10 10 -4 10 7 0 19 -11 28 -25z m-9
-255 c3 -6 -1 -7 -9 -4 -18 7 -21 14 -7 14 6 0 13 -4 16 -10z m17 -285 c12
-16 9 -21 -15 -23 -16 -1 -23 4 -24 19 -2 21 25 24 39 4z m-129 -770 c-3 -10
-1 -15 7 -13 7 2 14 -3 16 -10 1 -8 0 -8 -3 -1 -4 8 -8 7 -14 -2 -7 -12 -9
-12 -9 0 0 11 -3 11 -15 1 -14 -12 -16 -10 -14 6 0 4 -5 11 -13 16 -10 8 -9 9
3 5 9 -3 22 -1 30 4 19 12 19 11 12 -6z m-13213 -44 c0 -4 -6 -8 -14 -8 -8 0
-12 6 -9 14 5 13 23 9 23 -6z m12933 -25 c-3 -5 -1 -6 6 -2 6 4 9 11 6 16 -3
5 -1 11 5 15 5 3 10 -3 10 -13 0 -22 -26 -37 -36 -21 -3 6 -12 8 -20 5 -7 -3
-16 0 -20 6 -4 7 -3 8 4 4 7 -4 12 -2 12 4 0 6 5 8 10 5 6 -3 10 0 10 7 0 10
3 9 9 -2 6 -8 7 -18 4 -24z m115 2 c-2 -5 -8 -9 -13 -9 -5 0 -11 4 -13 9 -1 5
4 9 13 9 9 0 14 -4 13 -9z m-323 -77 c3 -6 -3 -14 -13 -20 -14 -8 -18 -6 -19
10 -2 20 21 27 32 10z m-480 -360 c3 -6 -4 -15 -15 -21 -19 -10 -20 -10 -8 9
15 24 15 24 23 12z m-77 -88 c-2 -9 -11 -17 -21 -19 -18 -2 -18 -2 -1 17 21
23 26 24 22 2z m-263 -434 c4 -5 -1 -12 -9 -15 -9 -3 -14 -10 -11 -14 9 -14
-14 -22 -32 -11 -11 6 -13 11 -5 11 7 0 10 4 7 10 -3 5 0 7 8 4 8 -3 18 0 23
7 4 7 3 10 -4 5 -6 -3 -13 -3 -16 2 -2 4 4 8 14 9 11 1 22 -3 25 -8z m-10492
-525 c15 -1 27 3 27 7 0 5 9 0 20 -11 23 -23 41 -26 38 -7 -2 7 5 11 16 9 13
-2 16 1 10 10 -6 10 -4 10 9 -1 9 -7 17 -10 17 -6 0 4 7 2 15 -5 11 -9 12 -16
5 -25 -14 -17 -56 -13 -52 5 2 9 -5 5 -18 -8 -21 -22 -23 -22 -41 -6 -10 9
-19 13 -19 8 0 -6 -9 -10 -21 -11 -15 -1 -19 2 -15 14 5 13 4 14 -9 3 -8 -7
-15 -11 -16 -9 -7 36 -8 52 -2 44 5 -6 20 -11 36 -11z m192 4 c5 4 5 1 1 -6
-4 -7 -2 -19 4 -27 9 -11 9 -15 1 -15 -6 0 -14 0 -18 0 -5 0 -8 8 -9 19 -1 10
-5 25 -9 32 -7 11 -6 12 7 2 8 -7 19 -9 23 -5z m159 -19 c-9 -10 -21 -16 -26
-13 -5 3 -16 0 -24 -7 -13 -11 -18 -10 -26 4 -5 10 -13 15 -18 12 -4 -3 -10 1
-13 8 -4 10 7 13 44 11 27 -1 52 2 55 7 3 5 10 7 15 3 6 -4 4 -13 -7 -25z
m158 17 c7 4 8 2 4 -5 -4 -6 -2 -18 4 -26 9 -11 9 -15 1 -15 -6 0 -14 0 -18 0
-5 0 -9 14 -10 32 -1 18 1 27 4 20 2 -6 10 -9 15 -6z m162 -17 c-9 -10 -21
-16 -26 -13 -5 3 -16 0 -24 -7 -13 -11 -18 -10 -26 4 -5 10 -13 15 -18 12 -4
-3 -10 1 -13 8 -4 10 7 13 44 11 27 -1 52 2 55 7 3 5 10 7 15 3 6 -4 4 -13 -7
-25z m76 -3 c0 -7 -4 -6 -9 2 -9 16 -20 15 -41 -1 -8 -6 -6 -2 4 11 15 17 22
19 33 11 7 -6 13 -17 13 -23z m564 21 c4 4 4 0 1 -9 -8 -20 7 -30 25 -16 12 8
11 8 -5 3 -15 -5 -17 -3 -8 6 6 6 16 8 22 5 13 -8 4 -33 -12 -33 -7 0 -19 -2
-27 -4 -9 -3 -15 4 -16 17 0 12 -5 28 -9 35 -7 11 -6 12 7 2 8 -7 18 -10 22
-6z m69 0 c4 3 7 1 7 -5 0 -21 -16 -21 -30 1 -12 19 -11 21 2 10 8 -7 18 -10
21 -6z m93 -16 c-9 -10 -13 -22 -9 -26 5 -5 0 -3 -9 4 -9 7 -22 10 -28 6 -15
-9 -30 3 -24 20 3 8 15 12 29 9 13 -2 27 0 30 6 4 6 11 8 16 4 6 -4 4 -13 -5
-23z m441 11 c-1 -19 -34 -25 -34 -6 0 7 6 10 14 7 7 -3 13 0 13 6 0 6 2 11 4
11 3 0 4 -8 3 -18z m143 3 c0 4 7 2 15 -5 11 -9 12 -16 5 -25 -14 -17 -56 -13
-52 5 2 11 -2 10 -12 -3 -7 -9 -20 -15 -28 -12 -15 6 -22 45 -7 45 5 0 8 -5 7
-11 -2 -6 3 -14 10 -16 7 -3 11 1 10 9 -2 8 4 12 16 10 13 -2 16 1 10 10 -6
10 -4 10 9 -1 9 -7 17 -10 17 -6z m55 3 c5 4 5 1 1 -6 -4 -7 -2 -19 4 -27 9
-11 9 -15 1 -15 -6 0 -14 0 -18 0 -5 0 -8 8 -9 19 -1 10 -5 25 -9 32 -7 11 -6
12 7 2 8 -7 19 -9 23 -5z m159 -19 c-9 -10 -21 -16 -26 -13 -5 3 -16 0 -24 -7
-13 -11 -18 -10 -26 4 -5 10 -13 15 -18 12 -4 -3 -10 1 -13 8 -4 10 7 13 44
11 27 -1 52 2 55 7 3 5 10 7 15 3 6 -4 4 -13 -7 -25z m158 17 c7 4 8 2 4 -5
-4 -6 -2 -18 4 -26 9 -11 9 -15 1 -15 -6 0 -14 0 -18 0 -5 0 -9 14 -10 32 -1
18 1 27 4 20 2 -6 10 -9 15 -6z m162 -17 c-9 -10 -21 -16 -26 -13 -5 3 -16 0
-24 -7 -13 -11 -18 -10 -26 4 -5 10 -13 15 -18 12 -4 -3 -10 1 -13 8 -4 10 7
13 44 11 27 -1 52 2 55 7 3 5 10 7 15 3 6 -4 4 -13 -7 -25z m76 -3 c0 -7 -4
-6 -9 2 -9 16 -20 15 -41 -1 -8 -6 -6 -2 4 11 15 17 22 19 33 11 7 -6 13 -17
13 -23z m564 21 c4 4 4 0 1 -9 -8 -20 7 -30 25 -16 12 8 11 8 -5 3 -15 -5 -17
-3 -8 6 6 6 16 8 22 5 13 -8 4 -33 -12 -33 -7 0 -19 -2 -27 -4 -9 -3 -15 4
-16 17 0 12 -5 28 -9 35 -7 11 -6 12 7 2 8 -7 18 -10 22 -6z m69 0 c4 3 7 1 7
-5 0 -21 -16 -21 -30 1 -12 19 -11 21 2 10 8 -7 18 -10 21 -6z m93 -16 c-9
-10 -13 -22 -9 -26 5 -5 0 -3 -9 4 -9 7 -22 10 -28 6 -15 -9 -30 3 -24 20 3 8
15 12 29 9 13 -2 27 0 30 6 4 6 11 8 16 4 6 -4 4 -13 -5 -23z m441 11 c-1 -19
-34 -25 -34 -6 0 7 6 10 14 7 7 -3 13 0 13 6 0 6 2 11 4 11 3 0 4 -8 3 -18z
m143 3 c0 4 7 2 15 -5 11 -9 12 -16 5 -25 -14 -17 -56 -13 -52 5 2 11 -2 10
-12 -3 -7 -9 -20 -15 -28 -12 -15 6 -22 45 -7 45 5 0 8 -5 7 -11 -2 -6 3 -14
10 -16 7 -3 11 1 10 9 -2 8 4 12 16 10 13 -2 16 1 10 10 -6 10 -4 10 9 -1 9
-7 17 -10 17 -6z m55 3 c5 4 5 1 1 -6 -4 -7 -2 -19 4 -27 9 -11 9 -15 1 -15
-6 0 -14 0 -18 0 -5 0 -8 8 -9 19 -1 10 -5 25 -9 32 -7 11 -6 12 7 2 8 -7 19
-9 23 -5z m159 -19 c-9 -10 -21 -16 -26 -13 -5 3 -16 0 -24 -7 -13 -11 -18
-10 -26 4 -5 10 -13 15 -18 12 -4 -3 -10 1 -13 8 -4 10 7 13 44 11 27 -1 52 2
55 7 3 5 10 7 15 3 6 -4 4 -13 -7 -25z m158 17 c7 4 8 2 4 -5 -4 -6 -2 -18 4
-26 9 -11 9 -15 1 -15 -6 0 -14 0 -18 0 -5 0 -9 14 -10 32 -1 18 1 27 4 20 2
-6 10 -9 15 -6z m162 -17 c-9 -10 -21 -16 -26 -13 -5 3 -16 0 -24 -7 -13 -11
-18 -10 -26 4 -5 10 -13 15 -18 12 -4 -3 -10 1 -13 8 -4 10 7 13 44 11 27 -1
52 2 55 7 3 5 10 7 15 3 6 -4 4 -13 -7 -25z m76 -3 c0 -7 -4 -6 -9 2 -9 16
-20 15 -41 -1 -8 -6 -6 -2 4 11 15 17 22 19 33 11 7 -6 13 -17 13 -23z m564
21 c4 4 4 0 1 -9 -8 -20 7 -30 25 -16 12 8 11 8 -5 3 -15 -5 -17 -3 -8 6 6 6
16 8 22 5 13 -8 4 -33 -12 -33 -7 0 -19 -2 -27 -4 -9 -3 -15 4 -16 17 0 12 -5
28 -9 35 -7 11 -6 12 7 2 8 -7 18 -10 22 -6z m69 0 c4 3 7 1 7 -5 0 -21 -16
-21 -30 1 -12 19 -11 21 2 10 8 -7 18 -10 21 -6z m93 -16 c-9 -10 -13 -22 -9
-26 5 -5 0 -3 -9 4 -9 7 -22 10 -28 6 -15 -9 -30 3 -24 20 3 8 15 12 29 9 13
-2 27 0 30 6 4 6 11 8 16 4 6 -4 4 -13 -5 -23z m441 11 c-1 -19 -34 -25 -34
-6 0 7 6 10 14 7 7 -3 13 0 13 6 0 6 2 11 4 11 3 0 4 -8 3 -18z m143 3 c0 4 7
2 15 -5 11 -9 12 -16 5 -25 -14 -17 -56 -13 -52 5 2 11 -2 10 -12 -3 -7 -9
-20 -15 -28 -12 -15 6 -22 45 -7 45 5 0 8 -5 7 -11 -2 -6 3 -14 10 -16 7 -3
11 1 10 9 -2 8 4 12 16 10 13 -2 16 1 10 10 -6 10 -4 10 9 -1 9 -7 17 -10 17
-6z m55 3 c5 4 5 1 1 -6 -4 -7 -2 -19 4 -27 9 -11 9 -15 1 -15 -6 0 -14 0 -18
0 -5 0 -8 8 -9 19 -1 10 -5 25 -9 32 -7 11 -6 12 7 2 8 -7 19 -9 23 -5z m159
-19 c-9 -10 -21 -16 -26 -13 -5 3 -16 0 -24 -7 -13 -11 -18 -10 -26 4 -5 10
-13 15 -18 12 -4 -3 -10 1 -13 8 -4 10 7 13 44 11 27 -1 52 2 55 7 3 5 10 7
15 3 6 -4 4 -13 -7 -25z m158 17 c7 4 8 2 4 -5 -4 -6 -2 -18 4 -26 9 -11 9
-15 1 -15 -6 0 -14 0 -18 0 -5 0 -9 14 -10 32 -1 18 1 27 4 20 2 -6 10 -9 15
-6z m162 -17 c-9 -10 -21 -16 -26 -13 -5 3 -16 0 -24 -7 -13 -11 -18 -10 -26
4 -5 10 -13 15 -18 12 -4 -3 -10 1 -13 8 -4 10 7 13 44 11 27 -1 52 2 55 7 3
5 10 7 15 3 6 -4 4 -13 -7 -25z m76 -3 c0 -7 -4 -6 -9 2 -9 16 -20 15 -41 -1
-8 -6 -6 -2 4 11 15 17 22 19 33 11 7 -6 13 -17 13 -23z m564 21 c4 4 4 0 1
-9 -8 -20 7 -30 25 -16 12 8 11 8 -5 3 -15 -5 -17 -3 -8 6 6 6 16 8 22 5 13
-8 4 -33 -12 -33 -7 0 -19 -2 -27 -4 -9 -3 -15 4 -16 17 0 12 -5 28 -9 35 -7
11 -6 12 7 2 8 -7 18 -10 22 -6z m69 0 c4 3 7 1 7 -5 0 -21 -16 -21 -30 1 -12
19 -11 21 2 10 8 -7 18 -10 21 -6z m93 -16 c-9 -10 -13 -22 -9 -26 5 -5 0 -3
-9 4 -9 7 -22 10 -28 6 -15 -9 -30 3 -24 20 3 8 15 12 29 9 13 -2 27 0 30 6 4
6 11 8 16 4 6 -4 4 -13 -5 -23z m441 11 c-1 -19 -34 -25 -34 -6 0 7 6 10 14 7
7 -3 13 0 13 6 0 6 2 11 4 11 3 0 4 -8 3 -18z m143 3 c0 4 7 2 15 -5 11 -9 12
-16 5 -25 -14 -17 -56 -13 -52 5 2 11 -2 10 -12 -3 -7 -9 -20 -15 -28 -12 -15
6 -22 45 -7 45 5 0 8 -5 7 -11 -2 -6 3 -14 10 -16 7 -3 11 1 10 9 -2 8 4 12
16 10 13 -2 16 1 10 10 -6 10 -4 10 9 -1 9 -7 17 -10 17 -6z m55 3 c5 4 5 1 1
-6 -4 -7 -2 -19 4 -27 9 -11 9 -15 1 -15 -6 0 -14 0 -18 0 -5 0 -8 8 -9 19 -1
10 -5 25 -9 32 -7 11 -6 12 7 2 8 -7 19 -9 23 -5z m159 -19 c-9 -10 -21 -16
-26 -13 -5 3 -16 0 -24 -7 -13 -11 -18 -10 -26 4 -5 10 -13 15 -18 12 -4 -3
-10 1 -13 8 -4 10 7 13 44 11 27 -1 52 2 55 7 3 5 10 7 15 3 6 -4 4 -13 -7
-25z m158 17 c7 4 8 2 4 -5 -4 -6 -2 -18 4 -26 9 -11 9 -15 1 -15 -6 0 -14 0
-18 0 -5 0 -9 14 -10 32 -1 18 1 27 4 20 2 -6 10 -9 15 -6z m162 -17 c-9 -10
-21 -16 -26 -13 -5 3 -16 0 -24 -7 -13 -11 -18 -10 -26 4 -5 10 -13 15 -18 12
-4 -3 -10 1 -13 8 -4 10 7 13 44 11 27 -1 52 2 55 7 3 5 10 7 15 3 6 -4 4 -13
-7 -25z m161 19 c5 4 5 1 1 -6 -4 -7 -2 -19 4 -27 9 -11 9 -15 1 -15 -6 0 -14
0 -18 0 -5 0 -8 8 -9 19 -1 10 -5 25 -9 32 -7 11 -6 12 7 2 8 -7 19 -9 23 -5z
m159 -19 c-9 -10 -21 -16 -26 -13 -5 3 -16 0 -24 -7 -13 -11 -18 -10 -26 4 -5
10 -13 15 -18 12 -4 -3 -10 1 -13 8 -4 10 7 13 44 11 27 -1 52 2 55 7 3 5 10
7 15 3 6 -4 4 -13 -7 -25z m158 17 c7 4 8 2 4 -5 -4 -6 -2 -18 4 -26 9 -11 9
-15 1 -15 -6 0 -14 0 -18 0 -5 0 -9 14 -10 32 -1 18 1 27 4 20 2 -6 10 -9 15
-6z m162 -17 c-9 -10 -21 -16 -26 -13 -5 3 -16 0 -24 -7 -13 -11 -18 -10 -26
4 -5 10 -13 15 -18 12 -4 -3 -10 1 -13 8 -4 10 7 13 44 11 27 -1 52 2 55 7 3
5 10 7 15 3 6 -4 4 -13 -7 -25z m76 -3 c0 -7 -4 -6 -9 2 -9 16 -20 15 -41 -1
-8 -6 -6 -2 4 11 15 17 22 19 33 11 7 -6 13 -17 13 -23z m564 21 c4 4 4 0 1
-9 -8 -20 7 -30 25 -16 12 8 11 8 -5 3 -15 -5 -17 -3 -8 6 6 6 16 8 22 5 13
-8 4 -33 -12 -33 -7 0 -19 -2 -27 -4 -9 -3 -15 4 -16 17 0 12 -5 28 -9 35 -7
11 -6 12 7 2 8 -7 18 -10 22 -6z m69 0 c4 3 7 1 7 -5 0 -21 -16 -21 -30 1 -12
19 -11 21 2 10 8 -7 18 -10 21 -6z m93 -16 c-9 -10 -13 -22 -9 -26 5 -5 0 -3
-9 4 -9 7 -22 10 -28 6 -15 -9 -30 3 -24 20 3 8 15 12 29 9 13 -2 27 0 30 6 4
6 11 8 16 4 6 -4 4 -13 -5 -23z m-9861 -21 c16 -17 16 -20 3 -15 -9 4 -19 13
-22 21 -7 19 -2 18 19 -6z m10221 -3 c4 -4 0 -7 -9 -7 -9 0 -18 4 -21 9 -7 10
20 9 30 -2z"/>
<path d="M13414 7705 c-4 -8 -11 -14 -18 -13 -18 4 -57 -22 -50 -33 4 -6 15
-4 30 6 14 9 28 14 32 11 4 -2 14 1 23 8 14 9 14 13 3 24 -12 11 -15 10 -20
-3z"/>
<path d="M13227 7606 c-7 -19 11 -32 24 -19 6 6 5 14 -4 22 -12 9 -16 8 -20
-3z"/>
<path d="M1866 3193 c-4 -11 -2 -11 12 -4 12 7 23 5 37 -7 20 -17 20 -17 2 4
-20 24 -44 27 -51 7z"/>
<path d="M1985 3200 c3 -5 -1 -11 -7 -14 -7 -2 -2 -3 12 -2 29 3 34 18 7 22
-9 1 -15 -1 -12 -6z"/>
<path d="M2199 3203 c-13 -16 -12 -17 4 -4 9 7 17 15 17 17 0 8 -8 3 -21 -13z"/>
<path d="M2136 3198 c3 -4 11 -8 19 -8 8 0 16 4 19 8 2 4 -6 8 -19 8 -13 0
-21 -4 -19 -8z"/>
<path d="M2519 3203 c-13 -16 -12 -17 4 -4 16 13 21 21 13 21 -2 0 -10 -8 -17
-17z"/>
<path d="M2456 3198 c3 -4 11 -8 19 -8 8 0 16 4 19 8 2 4 -6 8 -19 8 -13 0
-21 -4 -19 -8z"/>
<path d="M3319 3203 c-13 -16 -12 -17 4 -4 16 13 21 21 13 21 -2 0 -10 -8 -17
-17z"/>
<path d="M3280 3200 c-9 -6 -10 -10 -3 -10 6 0 15 5 18 10 8 12 4 12 -15 0z"/>
<path d="M3905 3200 c3 -5 -1 -11 -7 -14 -7 -2 -2 -3 12 -2 29 3 34 18 7 22
-9 1 -15 -1 -12 -6z"/>
<path d="M4119 3203 c-13 -16 -12 -17 4 -4 16 13 21 21 13 21 -2 0 -10 -8 -17
-17z"/>
<path d="M4056 3198 c3 -4 11 -8 19 -8 8 0 16 4 19 8 2 4 -6 8 -19 8 -13 0
-21 -4 -19 -8z"/>
<path d="M4439 3203 c-13 -16 -12 -17 4 -4 16 13 21 21 13 21 -2 0 -10 -8 -17
-17z"/>
<path d="M4376 3198 c3 -4 11 -8 19 -8 8 0 16 4 19 8 2 4 -6 8 -19 8 -13 0
-21 -4 -19 -8z"/>
<path d="M5239 3203 c-13 -16 -12 -17 4 -4 16 13 21 21 13 21 -2 0 -10 -8 -17
-17z"/>
<path d="M5200 3200 c-9 -6 -10 -10 -3 -10 6 0 15 5 18 10 8 12 4 12 -15 0z"/>
<path d="M5825 3200 c3 -5 -1 -11 -7 -14 -7 -2 -2 -3 12 -2 29 3 34 18 7 22
-9 1 -15 -1 -12 -6z"/>
<path d="M6039 3203 c-13 -16 -12 -17 4 -4 16 13 21 21 13 21 -2 0 -10 -8 -17
-17z"/>
<path d="M5976 3198 c3 -4 11 -8 19 -8 8 0 16 4 19 8 2 4 -6 8 -19 8 -13 0
-21 -4 -19 -8z"/>
<path d="M6359 3203 c-13 -16 -12 -17 4 -4 16 13 21 21 13 21 -2 0 -10 -8 -17
-17z"/>
<path d="M6296 3198 c3 -4 11 -8 19 -8 8 0 16 4 19 8 2 4 -6 8 -19 8 -13 0
-21 -4 -19 -8z"/>
<path d="M7159 3203 c-13 -16 -12 -17 4 -4 16 13 21 21 13 21 -2 0 -10 -8 -17
-17z"/>
<path d="M7120 3200 c-9 -6 -10 -10 -3 -10 6 0 15 5 18 10 8 12 4 12 -15 0z"/>
<path d="M7745 3200 c3 -5 -1 -11 -7 -14 -7 -2 -2 -3 12 -2 29 3 34 18 7 22
-9 1 -15 -1 -12 -6z"/>
<path d="M7959 3203 c-13 -16 -12 -17 4 -4 16 13 21 21 13 21 -2 0 -10 -8 -17
-17z"/>
<path d="M7896 3198 c3 -4 11 -8 19 -8 8 0 16 4 19 8 2 4 -6 8 -19 8 -13 0
-21 -4 -19 -8z"/>
<path d="M8279 3203 c-13 -16 -12 -17 4 -4 16 13 21 21 13 21 -2 0 -10 -8 -17
-17z"/>
<path d="M8216 3198 c3 -4 11 -8 19 -8 8 0 16 4 19 8 2 4 -6 8 -19 8 -13 0
-21 -4 -19 -8z"/>
<path d="M9079 3203 c-13 -16 -12 -17 4 -4 16 13 21 21 13 21 -2 0 -10 -8 -17
-17z"/>
<path d="M9040 3200 c-9 -6 -10 -10 -3 -10 6 0 15 5 18 10 8 12 4 12 -15 0z"/>
<path d="M9665 3200 c3 -5 -1 -11 -7 -14 -7 -2 -2 -3 12 -2 29 3 34 18 7 22
-9 1 -15 -1 -12 -6z"/>
<path d="M9879 3203 c-13 -16 -12 -17 4 -4 16 13 21 21 13 21 -2 0 -10 -8 -17
-17z"/>
<path d="M9816 3198 c3 -4 11 -8 19 -8 8 0 16 4 19 8 2 4 -6 8 -19 8 -13 0
-21 -4 -19 -8z"/>
<path d="M10199 3203 c-13 -16 -12 -17 4 -4 16 13 21 21 13 21 -2 0 -10 -8
-17 -17z"/>
<path d="M10136 3198 c3 -4 11 -8 19 -8 8 0 16 4 19 8 2 4 -6 8 -19 8 -13 0
-21 -4 -19 -8z"/>
<path d="M10519 3203 c-13 -16 -12 -17 4 -4 16 13 21 21 13 21 -2 0 -10 -8
-17 -17z"/>
<path d="M10456 3198 c3 -4 11 -8 19 -8 8 0 16 4 19 8 2 4 -6 8 -19 8 -13 0
-21 -4 -19 -8z"/>
<path d="M10839 3203 c-13 -16 -12 -17 4 -4 16 13 21 21 13 21 -2 0 -10 -8
-17 -17z"/>
<path d="M10776 3198 c3 -4 11 -8 19 -8 8 0 16 4 19 8 2 4 -6 8 -19 8 -13 0
-21 -4 -19 -8z"/>
<path d="M11639 3203 c-13 -16 -12 -17 4 -4 9 7 17 15 17 17 0 8 -8 3 -21 -13z"/>
<path d="M11600 3200 c-9 -6 -10 -10 -3 -10 6 0 15 5 18 10 8 12 4 12 -15 0z"/>
<path d="M12316 10478 c3 -5 10 -6 15 -3 13 9 11 12 -6 12 -8 0 -12 -4 -9 -9z"/>
<path d="M12290 10421 c0 -9 30 -24 36 -18 2 1 -6 8 -16 15 -11 7 -20 8 -20 3z"/>
<path d="M12347 10393 c3 -7 6 -13 8 -13 2 0 5 6 8 13 3 8 -1 14 -8 14 -7 0
-11 -6 -8 -14z"/>
<path d="M12346 10341 c-3 -5 1 -11 9 -14 9 -4 12 -1 8 9 -6 16 -10 17 -17 5z"/>
<path d="M12337 10309 c7 -7 15 -10 18 -7 3 3 -2 9 -12 12 -14 6 -15 5 -6 -5z"/>
<path d="M12415 10300 c-3 -5 -1 -10 4 -10 6 0 11 5 11 10 0 6 -2 10 -4 10 -3
0 -8 -4 -11 -10z"/>
<path d="M12366 10241 c-3 -4 1 -17 9 -27 11 -16 16 -17 27 -6 11 11 10 12 -6
6 -13 -5 -17 -4 -12 4 4 7 2 12 -6 12 -9 0 -9 3 2 10 9 6 10 10 3 10 -6 0 -14
-4 -17 -9z"/>
<path d="M12408 10189 c-14 -8 -15 -14 -6 -34 6 -14 13 -23 15 -21 3 2 -1 14
-7 27 -10 18 -10 21 2 16 9 -3 15 1 15 9 0 8 -1 14 -1 14 -1 0 -9 -5 -18 -11z"/>
<path d="M12456 10082 c-3 -5 3 -15 13 -24 16 -14 19 -13 29 3 8 12 8 20 2 24
-6 4 -9 3 -8 -2 3 -8 -5 -13 -23 -13 -5 0 -7 5 -4 10 3 6 4 10 1 10 -3 0 -7
-4 -10 -8z"/>
<path d="M12535 10049 c-4 -6 -5 -12 -2 -15 2 -3 7 2 10 11 7 17 1 20 -8 4z"/>
<path d="M12531 9987 c-13 -21 -12 -21 5 -5 10 10 16 20 13 22 -3 3 -11 -5
-18 -17z"/>
<path d="M12537 9962 c-3 -4 3 -18 14 -31 10 -13 19 -19 19 -13 0 6 -7 17 -15
25 -8 8 -11 17 -8 21 4 3 4 6 0 6 -3 0 -8 -3 -10 -8z"/>
<path d="M12570 9960 c0 -5 5 -10 11 -10 5 0 7 5 4 10 -3 6 -8 10 -11 10 -2 0
-4 -4 -4 -10z"/>
<path d="M12582 9905 c3 -3 16 -8 28 -10 12 -2 20 -1 16 2 -4 4 -16 8 -28 10
-12 2 -19 1 -16 -2z"/>
<path d="M12650 9859 c0 -5 5 -7 10 -4 6 3 10 8 10 11 0 2 -4 4 -10 4 -5 0
-10 -5 -10 -11z"/>
<path d="M12651 9833 c-1 -17 16 -25 25 -12 4 7 3 9 -4 5 -5 -3 -13 0 -15 6
-4 9 -6 10 -6 1z"/>
<path d="M12697 9795 c-4 -8 -3 -16 1 -19 4 -3 9 4 9 15 2 23 -3 25 -10 4z"/>
<path d="M12766 9738 c3 -5 10 -6 15 -3 13 9 11 12 -6 12 -8 0 -12 -4 -9 -9z"/>
<path d="M12854 9666 c1 -8 5 -18 8 -22 4 -3 5 1 4 10 -1 8 -5 18 -8 22 -4 3
-5 -1 -4 -10z"/>
<path d="M13053 9524 c8 -9 47 -13 51 -6 2 4 -9 8 -25 8 -17 1 -28 0 -26 -2z"/>
<path d="M13799 9263 c-1 -5 -1 -12 0 -17 1 -5 -5 -6 -14 -2 -10 3 -14 2 -10
-5 9 -14 28 -6 31 14 1 9 0 17 -2 17 -2 0 -5 -3 -5 -7z"/>
<path d="M13780 9206 c0 -2 11 -6 25 -8 13 -3 22 -1 19 3 -5 9 -44 13 -44 5z"/>
<path d="M13813 9073 c-15 -5 -17 -23 -4 -23 5 0 11 7 15 15 3 8 4 15 3 14 -1
0 -8 -3 -14 -6z"/>
<path d="M13789 8970 c-9 -9 -14 -25 -13 -35 2 -11 -3 -26 -9 -34 -9 -10 -5
-10 14 2 14 10 27 15 30 13 2 -2 5 8 6 22 1 27 1 27 -11 4 -7 -12 -15 -19 -19
-16 -4 4 0 18 9 32 19 29 15 35 -7 12z"/>
<path d="M13826 8978 c3 -5 10 -6 15 -3 13 9 11 12 -6 12 -8 0 -12 -4 -9 -9z"/>
<path d="M13784 8885 c-4 -8 -9 -13 -13 -11 -4 3 -7 -6 -7 -19 0 -15 5 -21 13
-18 13 5 17 18 14 37 -1 5 4 13 11 17 10 7 10 9 0 9 -7 0 -15 -7 -18 -15z"/>
<path d="M13833 8771 c0 -11 5 -18 9 -15 4 3 5 11 1 19 -7 21 -12 19 -10 -4z"/>
<path d="M13820 8706 c0 -2 8 -10 18 -17 15 -13 16 -12 3 4 -13 16 -21 21 -21
13z"/>
<path d="M13806 8537 c3 -10 9 -15 12 -12 3 3 0 11 -7 18 -10 9 -11 8 -5 -6z"/>
<path d="M13800 8420 c0 -5 5 -10 10 -10 6 0 10 5 10 10 0 6 -4 10 -10 10 -5
0 -10 -4 -10 -10z"/>
<path d="M13806 8305 c-9 -26 -7 -32 5 -12 6 10 9 21 6 23 -2 3 -7 -2 -11 -11z"/>
<path d="M13833 8285 c0 -8 4 -12 9 -9 5 3 6 10 3 15 -9 13 -12 11 -12 -6z"/>
<path d="M13810 8260 c0 -5 5 -10 11 -10 5 0 7 5 4 10 -3 6 -8 10 -11 10 -2 0
-4 -4 -4 -10z"/>
<path d="M13829 8143 c-13 -16 -12 -17 4 -4 9 7 17 15 17 17 0 8 -8 3 -21 -13z"/>
<path d="M13820 8066 c0 -2 8 -10 18 -17 15 -13 16 -12 3 4 -13 16 -21 21 -21
13z"/>
<path d="M13804 7942 c4 -3 14 -7 22 -8 9 -1 13 0 10 4 -4 3 -14 7 -22 8 -9 1
-13 0 -10 -4z"/>
<path d="M13770 7884 c-10 -12 -11 -15 -2 -10 7 4 19 3 26 -3 9 -8 13 -7 13 4
0 8 -4 12 -8 9 -4 -2 -9 1 -11 7 -2 7 -10 4 -18 -7z"/>
<path d="M173 7736 c1 -6 -4 -10 -10 -8 -7 1 -13 -2 -13 -8 0 -15 16 -12 34 6
20 19 20 21 2 21 -8 0 -14 -5 -13 -11z"/>
<path d="M13720 7741 c0 -7 -4 -9 -10 -6 -6 4 -7 -1 -3 -11 6 -15 7 -15 15 1
6 9 7 19 4 22 -3 4 -6 1 -6 -6z"/>
<path d="M201 7718 c-8 -12 -8 -19 1 -24 7 -4 8 -3 4 4 -3 6 3 16 14 22 13 7
20 7 20 0 0 -5 -4 -10 -10 -10 -5 0 -10 -8 -9 -17 0 -11 3 -13 6 -5 2 6 10 9
16 5 7 -3 9 -3 5 2 -4 4 -3 15 2 24 7 14 4 17 -15 17 -12 0 -28 -8 -34 -18z"/>
<path d="M13750 7730 c8 -5 20 -10 25 -10 6 0 3 5 -5 10 -8 5 -19 10 -25 10
-5 0 -3 -5 5 -10z"/>
<path d="M13516 7713 c-11 -11 -6 -20 17 -30 20 -9 23 -8 24 11 1 11 -1 15 -4
9 -3 -7 -9 -13 -14 -13 -6 0 -8 4 -4 9 6 11 -9 23 -19 14z"/>
<path d="M13731 7704 c0 -11 3 -14 6 -6 3 7 2 16 -1 19 -3 4 -6 -2 -5 -13z"/>
<path d="M13754 7696 c1 -8 5 -18 8 -22 4 -3 5 1 4 10 -1 8 -5 18 -8 22 -4 3
-5 -1 -4 -10z"/>
<path d="M175 7680 c3 -5 8 -10 11 -10 2 0 4 5 4 10 0 6 -5 10 -11 10 -5 0 -7
-4 -4 -10z"/>
<path d="M13636 7682 c-3 -4 4 -9 15 -9 23 -2 25 3 4 10 -8 4 -16 3 -19 -1z"/>
<path d="M338 7668 c-7 -17 15 -19 29 -3 4 4 3 5 -4 2 -6 -4 -13 -2 -15 5 -3
8 -6 6 -10 -4z"/>
<path d="M13576 7658 c3 -5 10 -6 15 -3 13 9 11 12 -6 12 -8 0 -12 -4 -9 -9z"/>
<path d="M421 7637 c2 -1 13 -9 24 -17 19 -14 19 -14 6 3 -7 9 -18 17 -24 17
-6 0 -8 -1 -6 -3z"/>
<path d="M13386 7625 c-11 -8 -15 -15 -9 -15 6 0 16 7 23 15 16 19 11 19 -14
0z"/>
<path d="M390 7621 c0 -6 4 -12 8 -15 5 -3 9 1 9 9 0 8 -4 15 -9 15 -4 0 -8
-4 -8 -9z"/>
<path d="M497 7613 c-4 -3 -7 -11 -7 -17 0 -6 5 -5 12 2 6 6 9 14 7 17 -3 3
-9 2 -12 -2z"/>
<path d="M513 7583 c4 -3 3 -11 -3 -17 -6 -8 -3 -12 9 -12 12 0 17 6 13 18 -2
10 -9 18 -15 18 -6 0 -7 -3 -4 -7z"/>
<path d="M590 7551 c0 -7 -4 -10 -8 -7 -4 2 -9 -5 -9 -16 -2 -21 -2 -21 14 1
8 12 12 25 9 28 -3 4 -6 1 -6 -6z"/>
<path d="M13160 7541 c0 -7 -5 -9 -12 -5 -7 5 -8 3 -3 -5 5 -9 10 -10 18 -2 6
6 8 14 4 18 -4 3 -7 1 -7 -6z"/>
<path d="M13239 7528 c-6 -21 -5 -37 2 -32 5 3 7 9 4 14 -3 4 1 11 7 13 10 4
10 6 1 6 -7 1 -13 0 -14 -1z"/>
<path d="M624 7498 c-4 -7 -4 -10 1 -6 4 4 15 2 24 -5 14 -11 14 -10 2 6 -16
20 -18 21 -27 5z"/>
<path d="M13195 7481 c-3 -5 -2 -12 3 -15 5 -3 9 1 9 9 0 17 -3 19 -12 6z"/>
<path d="M611 7467 c-8 -10 -7 -14 2 -14 8 0 14 6 14 14 0 7 -1 13 -2 13 -2 0
-8 -6 -14 -13z"/>
<path d="M673 7445 c0 -8 4 -15 9 -15 4 0 8 4 8 9 0 6 -4 12 -8 15 -5 3 -9 -1
-9 -9z"/>
<path d="M13082 7451 c-8 -4 -13 -11 -13 -15 3 -19 -1 -28 -19 -46 -11 -11
-16 -20 -11 -20 5 0 -4 -15 -21 -32 -61 -67 -60 -65 -47 -74 9 -5 8 -10 -5
-19 -15 -12 -15 -13 0 -19 13 -5 14 -9 4 -21 -7 -8 -17 -12 -24 -8 -6 4 -5 0
2 -9 9 -11 10 -18 2 -23 -6 -3 -8 -10 -5 -15 3 -5 0 -20 -7 -32 -7 -13 -13
-30 -13 -38 0 -8 -4 -20 -8 -27 -4 -6 -3 -15 3 -18 8 -5 8 -11 0 -20 -9 -10
-7 -13 7 -10 10 1 17 8 16 14 -2 6 2 11 7 11 6 0 10 -5 10 -12 0 -6 3 -8 6 -5
4 4 1 13 -5 21 -10 11 -8 17 6 25 10 6 13 11 6 11 -6 0 -15 -4 -18 -10 -3 -5
-11 -10 -17 -10 -6 0 -4 8 5 18 10 10 14 22 10 25 -3 4 -1 7 5 7 7 0 12 5 12
11 0 5 -4 7 -10 4 -5 -3 -10 -2 -10 4 0 5 6 12 13 15 9 5 9 7 0 12 -10 4 -10
8 0 19 7 7 15 11 18 9 4 -2 13 4 20 14 12 15 12 16 -2 5 -9 -7 -19 -10 -22 -7
-7 7 15 34 24 28 10 -6 6 31 -4 37 -5 4 -5 9 2 13 6 4 14 0 17 -9 6 -14 8 -14
20 2 7 10 13 23 13 28 0 6 -4 2 -10 -8 -6 -9 -14 -15 -20 -12 -5 3 0 16 11 28
11 11 19 26 17 32 -8 19 13 44 33 40 11 -2 18 0 15 6 -4 5 -1 9 6 9 7 0 9 3 6
6 -4 4 -13 2 -20 -4 -8 -7 -17 -9 -20 -5 -4 3 2 12 13 20 11 8 20 20 20 26 0
7 -4 6 -11 -3 -9 -13 -10 -13 -6 0 5 21 33 19 29 -2 -1 -9 2 -19 8 -23 6 -4 7
1 3 11 -5 13 -3 15 8 9 8 -5 3 4 -10 18 -14 15 -25 27 -25 27 -1 0 -7 -4 -14
-9z m-45 -120 c2 -25 -52 -77 -62 -60 -5 8 -4 10 4 5 7 -5 17 5 25 26 12 27
25 48 31 48 0 0 1 -8 2 -19z m-43 -102 c-3 -5 -10 -7 -15 -3 -5 3 -7 10 -3 15
3 5 10 7 15 3 5 -3 7 -10 3 -15z m-48 -134 c-1 -8 -5 -17 -8 -21 -5 -4 -4 16
1 34 3 9 9 -1 7 -13z"/>
<path d="M675 7411 c-3 -5 -2 -12 3 -15 5 -3 9 1 9 9 0 17 -3 19 -12 6z"/>
<path d="M640 7380 c-9 -6 -10 -10 -3 -10 6 0 15 5 18 10 8 12 4 12 -15 0z"/>
<path d="M13113 7355 c0 -8 4 -12 9 -9 4 3 8 9 8 15 0 5 -4 9 -8 9 -5 0 -9 -7
-9 -15z"/>
<path d="M13061 7334 c0 -11 3 -14 6 -6 3 7 2 16 -1 19 -3 4 -6 -2 -5 -13z"/>
<path d="M790 7201 c0 -6 4 -13 10 -16 6 -3 7 1 4 9 -7 18 -14 21 -14 7z"/>
<path d="M13016 7182 c-3 -5 1 -9 9 -9 8 0 12 4 9 9 -3 4 -7 8 -9 8 -2 0 -6
-4 -9 -8z"/>
<path d="M12980 7156 c0 -2 7 -7 16 -10 8 -3 12 -2 9 4 -6 10 -25 14 -25 6z"/>
<path d="M12982 7125 c3 -3 16 -8 28 -10 12 -2 20 -1 16 2 -4 4 -16 8 -28 10
-12 2 -19 1 -16 -2z"/>
<path d="M12980 7006 c0 -2 8 -10 18 -17 15 -13 16 -12 3 4 -13 16 -21 21 -21
13z"/>
<path d="M12926 6907 c3 -10 9 -15 12 -12 3 3 0 11 -7 18 -10 9 -11 8 -5 -6z"/>
<path d="M12970 6911 c0 -7 -4 -9 -10 -6 -5 3 -10 1 -10 -4 0 -6 4 -11 9 -11
13 0 25 20 17 27 -3 4 -6 1 -6 -6z"/>
<path d="M12930 6865 c-8 -10 -7 -13 4 -11 9 1 19 5 22 9 4 4 13 2 20 -4 8 -7
14 -7 19 1 4 6 3 10 -2 9 -4 -1 -10 0 -13 1 -21 8 -41 6 -50 -5z"/>
<path d="M13035 6869 c-4 -6 -5 -12 -2 -15 2 -3 7 2 10 11 7 17 1 20 -8 4z"/>
<path d="M12980 6826 c0 -2 7 -9 15 -16 13 -11 14 -10 9 4 -5 14 -24 23 -24
12z"/>
<path d="M13050 6821 c0 -6 4 -13 10 -16 6 -3 7 1 4 9 -7 18 -14 21 -14 7z"/>
<path d="M12959 6792 c-13 -15 -12 -16 3 -4 14 11 17 10 21 -5 4 -16 5 -16 6
-1 2 25 -15 30 -30 10z"/>
<path d="M12988 6753 c9 -3 10 -9 2 -18 -12 -14 -3 -45 12 -45 6 0 5 7 -3 16
-10 13 -10 17 0 24 15 9 6 30 -12 29 -8 0 -8 -2 1 -6z"/>
<path d="M13038 6603 c7 -3 16 -2 19 1 4 3 -2 6 -13 5 -11 0 -14 -3 -6 -6z"/>
<path d="M13055 6580 c3 -5 8 -10 11 -10 2 0 4 5 4 10 0 6 -5 10 -11 10 -5 0
-7 -4 -4 -10z"/>
<path d="M13076 6561 c-4 -5 -2 -12 3 -15 5 -4 12 -2 15 3 4 5 2 12 -3 15 -5
4 -12 2 -15 -3z"/>
<path d="M13150 6481 c0 -6 4 -12 8 -15 5 -3 9 1 9 9 0 8 -4 15 -9 15 -4 0 -8
-4 -8 -9z"/>
<path d="M13190 6481 c0 -6 4 -13 10 -16 6 -3 7 1 4 9 -7 18 -14 21 -14 7z"/>
<path d="M13196 6437 c3 -10 9 -15 12 -12 3 3 0 11 -7 18 -10 9 -11 8 -5 -6z"/>
<path d="M13420 6366 c0 -2 8 -10 18 -17 15 -13 16 -12 3 4 -13 16 -21 21 -21
13z"/>
<path d="M13446 6302 c-3 -5 1 -9 9 -9 8 0 12 4 9 9 -3 4 -7 8 -9 8 -2 0 -6
-4 -9 -8z"/>
<path d="M13770 6180 c0 -5 5 -10 11 -10 5 0 7 5 4 10 -3 6 -8 10 -11 10 -2 0
-4 -4 -4 -10z"/>
<path d="M13816 6107 c3 -10 9 -15 12 -12 3 3 0 11 -7 18 -10 9 -11 8 -5 -6z"/>
<path d="M13813 6032 c-7 -4 -9 -13 -4 -21 6 -9 10 -7 14 8 3 12 4 21 4 21 -1
0 -7 -4 -14 -8z"/>
<path d="M13780 6013 c0 -5 10 -18 23 -29 l22 -19 -20 25 c-11 14 -21 27 -22
29 -2 2 -3 0 -3 -6z"/>
<path d="M13769 5988 c-1 -2 -2 -24 -3 -49 -2 -43 0 -46 21 -46 13 0 26 3 29
8 3 5 -3 6 -12 2 -12 -4 -15 -3 -10 5 5 8 2 10 -9 5 -15 -5 -15 -3 -4 15 7 12
18 23 24 25 5 2 -1 2 -14 0 -21 -4 -23 -2 -12 10 8 10 9 17 1 22 -5 3 -11 5
-11 3z"/>
<path d="M13826 5918 c3 -5 10 -6 15 -3 13 9 11 12 -6 12 -8 0 -12 -4 -9 -9z"/>
<path d="M13811 5873 c-1 -17 16 -25 25 -12 4 7 3 9 -4 5 -5 -3 -13 0 -15 6
-4 9 -6 10 -6 1z"/>
<path d="M13805 5779 c-4 -6 -5 -12 -2 -15 2 -3 7 2 10 11 7 17 1 20 -8 4z"/>
<path d="M13833 5695 c0 -8 4 -12 9 -9 5 3 6 10 3 15 -9 13 -12 11 -12 -6z"/>
<path d="M13801 5633 c-1 -17 16 -25 25 -12 4 7 3 9 -4 5 -5 -3 -13 0 -15 6
-4 9 -6 10 -6 1z"/>
<path d="M13816 5493 c-6 -14 -5 -15 5 -6 7 7 10 15 7 18 -3 3 -9 -2 -12 -12z"/>
<path d="M13793 5464 c8 -9 47 -13 51 -6 2 4 -9 8 -25 8 -17 1 -28 0 -26 -2z"/>
<path d="M13821 5416 c-9 -11 -9 -16 0 -22 7 -4 9 -3 5 4 -3 6 2 15 11 21 10
6 13 11 7 11 -6 0 -17 -6 -23 -14z"/>
<path d="M13784 5411 c8 -13 -4 -42 -15 -36 -4 3 -6 -5 -3 -17 3 -13 6 -29 6
-35 2 -17 9 -16 33 3 20 16 20 16 -2 9 -14 -4 -23 -2 -23 4 0 10 14 15 33 12
5 -1 6 3 2 8 -3 6 -12 8 -20 4 -11 -4 -13 -1 -9 11 3 9 11 13 16 10 6 -4 5 3
-1 15 -7 11 -14 21 -17 21 -3 0 -3 -4 0 -9z"/>
<path d="M13813 5312 c-7 -4 -9 -13 -4 -21 6 -9 10 -7 14 8 3 12 4 21 4 21 -1
0 -7 -4 -14 -8z"/>
<path d="M13784 5293 c7 -13 -3 -45 -13 -39 -4 3 -7 -6 -7 -19 0 -16 4 -21 11
-16 5 5 19 11 30 14 18 4 18 5 -3 6 -20 1 -21 4 -11 22 8 16 8 24 -2 33 -9 8
-10 8 -5 -1z"/>
<path d="M13784 5205 c-4 -8 -9 -13 -13 -11 -4 3 -7 -14 -7 -37 1 -23 6 -45
13 -50 7 -4 10 -14 7 -22 -4 -8 -9 -13 -13 -10 -7 3 -6 -38 1 -92 2 -14 36
-28 45 -19 4 3 -1 6 -9 6 -9 0 -19 7 -22 16 -9 22 -8 26 6 18 6 -4 8 -3 4 4
-3 5 -3 12 1 15 5 2 3 3 -4 1 -19 -4 -23 7 -8 22 8 8 11 22 8 32 -6 15 -5 16
13 2 14 -11 14 -8 -3 11 -26 29 -31 48 -8 29 10 -9 15 -9 15 -1 0 6 -5 11 -12
11 -9 0 -9 3 0 12 7 7 12 17 12 23 0 5 -5 2 -11 -8 -6 -9 -14 -15 -20 -12 -5
4 -3 13 6 21 8 9 12 20 9 26 -4 6 0 14 7 19 11 7 11 9 1 9 -7 0 -15 -7 -18
-15z"/>
<path d="M13833 5091 c0 -11 5 -18 9 -15 4 3 5 11 1 19 -7 21 -12 19 -10 -4z"/>
<path d="M13833 4955 c0 -8 4 -12 9 -9 5 3 6 10 3 15 -9 13 -12 11 -12 -6z"/>
<path d="M13769 4958 c0 -2 -2 -11 -4 -21 -3 -15 -1 -16 11 -6 7 6 11 15 8 20
-5 9 -13 12 -15 7z"/>
<path d="M13806 4937 c3 -10 9 -15 12 -12 3 3 0 11 -7 18 -10 9 -11 8 -5 -6z"/>
<path d="M13805 4900 c-3 -5 -1 -10 4 -10 6 0 11 5 11 10 0 6 -2 10 -4 10 -3
0 -8 -4 -11 -10z"/>
<path d="M13810 4830 c-9 -6 -10 -10 -3 -10 6 0 15 5 18 10 8 12 4 12 -15 0z"/>
<path d="M13793 4798 c2 -7 1 -20 -4 -29 -5 -10 -4 -16 4 -16 7 0 12 13 12 29
1 15 -3 28 -8 28 -5 0 -7 -6 -4 -12z"/>
<path d="M13720 4744 c14 -17 27 -30 29 -28 2 2 -2 11 -10 21 -12 15 -12 16 3
10 10 -3 20 -2 23 3 8 13 -9 20 -25 10 -9 -5 -20 -4 -29 3 -9 7 -4 -2 9 -19z"/>
<path d="M190 4751 c0 -5 8 -15 18 -22 15 -12 16 -12 5 2 -7 9 -10 19 -6 22 3
4 1 7 -5 7 -7 0 -12 -4 -12 -9z"/>
<path d="M227 4754 c-8 -8 3 -34 15 -34 6 0 6 6 -1 14 -9 11 -9 15 1 19 7 3 8
6 2 6 -6 1 -13 -2 -17 -5z"/>
<path d="M161 4736 c-9 -11 -9 -16 1 -22 7 -4 10 -4 6 1 -4 4 -3 14 3 22 6 7
9 13 6 13 -2 0 -10 -6 -16 -14z"/>
<path d="M13577 4744 c-3 -3 -3 -12 -1 -18 3 -7 -2 -19 -11 -26 -8 -7 -15 -18
-15 -24 0 -6 5 -3 11 7 8 14 14 15 24 7 10 -8 15 -8 21 1 4 7 3 9 -4 5 -6 -3
-13 -2 -17 4 -3 5 3 10 14 10 10 0 22 -6 24 -12 4 -10 6 -10 6 0 1 8 -8 16
-19 19 -11 3 -18 9 -15 13 6 10 -10 22 -18 14z"/>
<path d="M13466 4732 c-3 -5 1 -9 9 -9 8 0 12 4 9 9 -3 4 -7 8 -9 8 -2 0 -6
-4 -9 -8z"/>
<path d="M13714 4722 c4 -7 3 -12 -2 -12 -15 0 -22 -29 -9 -36 7 -4 9 -3 4 1
-4 5 0 16 9 26 12 13 12 19 3 25 -8 4 -10 3 -5 -4z"/>
<path d="M201 4697 c-6 -6 -11 -15 -11 -21 0 -5 6 -1 14 9 12 17 16 18 32 5
10 -8 15 -10 11 -3 -4 6 -1 13 5 16 7 2 1 4 -14 4 -14 0 -31 -4 -37 -10z"/>
<path d="M317 4703 c15 -3 20 -9 17 -21 -5 -14 -4 -14 4 -2 14 19 6 30 -21 29
l-22 -2 22 -4z"/>
<path d="M433 4661 c0 -11 5 -18 9 -15 4 3 5 11 1 19 -7 21 -12 19 -10 -4z"/>
<path d="M582 4658 c-27 -17 -35 -38 -16 -38 3 0 3 4 0 9 -6 9 22 26 37 23 4
-1 7 3 7 9 0 5 4 8 9 5 5 -4 8 -16 7 -29 -2 -16 2 -23 15 -23 10 0 16 2 14 5
-3 2 1 9 8 15 7 6 10 10 8 9 -2 -1 -16 6 -30 17 -27 18 -28 18 -59 -2z m68
-18 c0 -5 -2 -10 -4 -10 -3 0 -8 5 -11 10 -3 6 -1 10 4 10 6 0 11 -4 11 -10z"/>
<path d="M13450 4666 c0 -2 7 -7 16 -10 8 -3 12 -2 9 4 -6 10 -25 14 -25 6z"/>
<path d="M13501 4656 c-9 -11 -9 -16 0 -22 7 -4 9 -3 5 4 -3 6 2 15 11 21 10
6 13 11 7 11 -6 0 -17 -6 -23 -14z"/>
<path d="M586 4624 c-5 -14 -4 -15 9 -4 17 14 19 20 6 20 -5 0 -12 -7 -15 -16z"/>
<path d="M13313 4615 c0 -8 4 -12 9 -9 5 3 6 10 3 15 -9 13 -12 11 -12 -6z"/>
<path d="M13255 4599 c-4 -6 -5 -12 -2 -15 2 -3 7 2 10 11 7 17 1 20 -8 4z"/>
<path d="M13370 4606 c0 -2 7 -7 16 -10 8 -3 12 -2 9 4 -6 10 -25 14 -25 6z"/>
<path d="M703 4582 c9 -10 15 -21 12 -24 -3 -3 3 -11 12 -19 16 -12 17 -12 6
1 -11 15 -13 20 -13 39 0 5 -8 12 -17 15 -16 6 -16 6 0 -12z"/>
<path d="M530 4586 c0 -2 7 -7 16 -10 8 -3 12 -2 9 4 -6 10 -25 14 -25 6z"/>
<path d="M13180 4581 c0 -5 7 -12 16 -15 14 -5 15 -4 4 9 -14 17 -20 19 -20 6z"/>
<path d="M756 4541 c9 -9 34 -9 34 -1 0 5 -9 8 -20 7 -10 -1 -17 -3 -14 -6z"/>
<path d="M12986 4533 c-6 -14 -5 -15 5 -6 7 7 10 15 7 18 -3 3 -9 -2 -12 -12z"/>
<path d="M903 4517 c0 -7 -4 -21 -7 -32 -5 -15 -4 -15 5 3 7 12 16 22 21 22
11 0 10 -14 -2 -26 -7 -7 -3 -17 11 -30 13 -10 19 -13 15 -6 -4 7 -2 21 5 30
11 14 11 15 -1 5 -18 -17 -38 -17 -22 -1 17 17 15 26 -6 37 -13 7 -19 6 -19
-2z"/>
<path d="M875 4510 c-3 -5 -1 -10 4 -10 6 0 11 5 11 10 0 6 -2 10 -4 10 -3 0
-8 -4 -11 -10z"/>
<path d="M13066 4502 c-3 -5 1 -9 9 -9 8 0 12 4 9 9 -3 4 -7 8 -9 8 -2 0 -6
-4 -9 -8z"/>
<path d="M12920 4485 c-7 -9 -8 -15 -2 -15 5 0 12 7 16 15 3 8 4 15 2 15 -2 0
-9 -7 -16 -15z"/>
<path d="M856 4482 c-3 -5 1 -9 9 -9 8 0 12 4 9 9 -3 4 -7 8 -9 8 -2 0 -6 -4
-9 -8z"/>
<path d="M12980 4460 c0 -5 7 -7 15 -4 8 4 15 8 15 10 0 2 -7 4 -15 4 -8 0
-15 -4 -15 -10z"/>
<path d="M13050 4466 c0 -2 7 -7 16 -10 8 -3 12 -2 9 4 -6 10 -25 14 -25 6z"/>
<path d="M990 4440 c0 -5 7 -7 15 -4 8 4 15 8 15 10 0 2 -7 4 -15 4 -8 0 -15
-4 -15 -10z"/>
<path d="M1065 4406 c15 -22 15 -29 4 -44 -12 -15 -12 -16 2 -5 9 7 19 9 24 5
4 -4 0 7 -9 25 -9 17 -21 35 -27 39 -6 3 -3 -5 6 -20z"/>
<path d="M12930 4399 c0 -5 5 -7 10 -4 6 3 10 8 10 11 0 2 -4 4 -10 4 -5 0
-10 -5 -10 -11z"/>
<path d="M12855 4391 c3 -5 -3 -11 -12 -13 -16 -3 -15 -5 2 -9 16 -5 21 -1 22
12 1 11 -3 19 -8 19 -6 0 -8 -4 -4 -9z"/>
<path d="M12749 4369 c-3 -19 -5 -24 -12 -37 -5 -7 -12 -10 -17 -7 -4 3 -19
-4 -31 -16 -13 -11 -19 -18 -12 -15 6 4 21 -6 32 -20 12 -15 21 -22 21 -17 0
5 -5 14 -12 21 -7 7 -8 12 -2 12 5 0 15 -5 22 -12 9 -9 12 -9 12 0 0 7 -5 12
-11 12 -5 0 -8 4 -4 10 3 5 13 6 23 3 13 -4 13 -2 -3 11 -14 11 -15 14 -4 10
10 -3 18 1 21 13 3 10 7 22 9 27 2 5 -4 10 -13 12 -10 1 -19 -2 -19 -7z m26
-9 c-3 -5 -12 -10 -18 -10 -7 0 -6 4 3 10 19 12 23 12 15 0z m-35 -46 c0 -8
-19 -13 -24 -6 -3 5 1 9 9 9 8 0 15 -2 15 -3z"/>
<path d="M12895 4360 c3 -5 8 -10 11 -10 2 0 4 5 4 10 0 6 -5 10 -11 10 -5 0
-7 -4 -4 -10z"/>
<path d="M1090 4342 c0 -5 7 -9 15 -9 8 0 12 4 9 9 -3 4 -9 8 -15 8 -5 0 -9
-4 -9 -8z"/>
<path d="M1130 4340 c0 -5 5 -10 11 -10 5 0 7 5 4 10 -3 6 -8 10 -11 10 -2 0
-4 -4 -4 -10z"/>
<path d="M1090 4299 c0 -5 5 -7 10 -4 6 3 10 8 10 11 0 2 -4 4 -10 4 -5 0 -10
-5 -10 -11z"/>
<path d="M1186 4287 c3 -10 9 -15 12 -12 3 3 0 11 -7 18 -10 9 -11 8 -5 -6z"/>
<path d="M1196 4233 c-6 -14 -5 -15 5 -6 7 7 10 15 7 18 -3 3 -9 -2 -12 -12z"/>
<path d="M1260 4200 c0 -5 5 -10 11 -10 5 0 7 5 4 10 -3 6 -8 10 -11 10 -2 0
-4 -4 -4 -10z"/>
<path d="M1280 4169 c0 -5 -4 -8 -9 -4 -5 3 -12 2 -15 -3 -2 -4 6 -8 19 -8 15
0 21 5 18 13 -6 16 -13 17 -13 2z"/>
<path d="M1326 4122 c-3 -5 1 -9 9 -9 8 0 12 4 9 9 -3 4 -7 8 -9 8 -2 0 -6 -4
-9 -8z"/>
<path d="M12530 4098 c0 -6 -3 -8 -6 -5 -4 3 -15 2 -25 -4 -15 -8 -17 -14 -9
-29 8 -15 6 -21 -7 -30 -17 -11 -17 -11 1 -6 14 5 17 2 12 -10 -3 -8 -6 -18
-6 -20 0 -2 -5 -4 -11 -4 -5 0 -7 6 -3 13 5 7 0 6 -11 -3 -10 -8 -21 -14 -24
-13 -3 2 -6 -3 -6 -10 0 -6 -4 -18 -9 -26 -5 -8 -3 -16 5 -22 13 -8 6 -13 -13
-10 -8 1 -31 -37 -34 -56 -1 -7 2 -13 7 -13 6 0 7 -5 4 -10 -4 -6 -11 -7 -17
-4 -6 4 -6 -2 1 -15 12 -22 31 -29 31 -10 0 5 -5 7 -11 3 -7 -4 -10 -1 -7 7 3
8 10 14 16 14 18 0 25 14 14 28 -12 14 -7 27 10 27 5 0 6 -4 3 -10 -4 -6 1 -7
11 -3 15 6 15 7 0 15 -13 8 -15 13 -5 24 6 7 16 11 23 7 6 -4 5 1 -3 10 -15
19 -1 23 17 5 8 -8 12 -9 12 -1 0 6 -6 13 -12 16 -9 3 -6 12 10 29 12 13 22
30 22 36 0 7 5 12 11 12 5 0 7 -6 3 -12 -5 -9 -3 -9 9 1 19 15 14 33 -7 25 -8
-3 -17 0 -22 7 -4 7 -3 10 4 5 6 -3 14 -2 17 4 5 8 11 7 21 -1 12 -10 13 -9 8
5 -3 9 -10 16 -15 16 -4 0 -6 7 -3 15 4 8 3 15 0 15 -3 0 -6 -5 -6 -12z m-6
-29 c-3 -5 -10 -7 -15 -3 -5 3 -7 10 -3 15 3 5 10 7 15 3 5 -3 7 -10 3 -15z
m-64 -90 c0 8 3 11 7 8 3 -4 -1 -15 -10 -25 -10 -10 -14 -22 -10 -27 5 -4 2
-5 -5 0 -9 5 -10 11 -4 17 6 6 8 18 5 27 -4 14 -3 14 6 1 9 -12 11 -13 11 -1z
m-49 -93 c-8 -10 -9 -16 -1 -21 5 -3 10 -12 10 -18 0 -7 -7 -4 -15 7 -11 14
-11 22 -2 37 6 10 13 16 16 14 2 -3 -2 -11 -8 -19z"/>
<path d="M12550 4102 c0 -5 11 -14 25 -20 14 -6 25 -10 25 -8 0 2 -11 11 -25
20 -14 9 -25 13 -25 8z"/>
<path d="M12616 4095 c-9 -26 -7 -32 5 -12 6 10 9 21 6 23 -2 3 -7 -2 -11 -11z"/>
<path d="M1330 4091 c0 -6 4 -13 10 -16 6 -3 7 1 4 9 -7 18 -14 21 -14 7z"/>
<path d="M1355 4061 c-6 -11 13 -26 22 -17 4 3 1 6 -6 6 -7 0 -9 5 -6 10 3 6
4 10 1 10 -3 0 -7 -4 -11 -9z"/>
<path d="M12571 4054 c0 -11 3 -14 6 -6 3 7 2 16 -1 19 -3 4 -6 -2 -5 -13z"/>
<path d="M1393 4025 c0 -8 4 -12 9 -9 5 3 6 10 3 15 -9 13 -12 11 -12 -6z"/>
<path d="M12533 3985 c0 -8 4 -15 9 -15 4 0 8 4 8 9 0 6 -4 12 -8 15 -5 3 -9
-1 -9 -9z"/>
<path d="M1404 3979 c-4 -7 -3 -9 4 -5 5 3 13 0 15 -6 4 -9 6 -10 6 -1 1 17
-16 25 -25 12z"/>
<path d="M1473 3775 c0 -8 4 -12 9 -9 5 3 6 10 3 15 -9 13 -12 11 -12 -6z"/>
<path d="M12370 3711 c-7 -15 -7 -19 5 -17 8 1 18 6 22 11 5 4 2 5 -6 0 -11
-6 -13 -4 -8 8 9 23 0 21 -13 -2z"/>
<path d="M1550 3661 c0 -6 4 -13 10 -16 6 -3 7 1 4 9 -7 18 -14 21 -14 7z"/>
<path d="M12299 3654 c-18 -22 -20 -44 -4 -51 10 -3 7 -11 -13 -29 -16 -14
-21 -23 -13 -24 11 0 11 -3 0 -17 -8 -9 -13 -18 -11 -20 7 -10 0 -23 -10 -17
-10 6 -10 4 -2 -7 6 -8 10 -22 9 -32 -2 -9 1 -15 5 -12 5 3 13 -2 18 -11 8
-14 10 -12 10 10 0 17 -5 25 -13 23 -6 -3 -12 1 -12 8 0 7 6 11 12 8 7 -2 15
3 18 12 4 8 17 20 29 25 20 9 20 10 -6 5 -27 -6 -28 -5 -15 11 9 11 9 15 2 10
-7 -4 -13 -3 -13 2 0 16 13 22 25 12 8 -7 12 -5 12 5 0 8 -4 12 -9 9 -4 -3 -8
0 -8 5 0 6 6 11 13 11 6 1 2 6 -11 13 -12 7 -20 16 -16 19 3 4 17 0 30 -9 22
-14 24 -14 18 1 -3 9 -10 14 -14 11 -5 -3 -11 -1 -14 4 -4 5 3 13 15 16 17 6
19 9 8 16 -19 12 -25 11 -40 -7z m30 3 c-2 -1 -13 -9 -24 -17 -19 -14 -19 -14
-6 3 7 9 18 17 24 17 6 0 8 -1 6 -3z m-42 -137 c1 -11 -2 -22 -8 -25 -7 -5 -7
18 0 43 3 8 7 -1 8 -18z"/>
<path d="M12355 3639 c-4 -6 -5 -12 -2 -15 2 -3 7 2 10 11 7 17 1 20 -8 4z"/>
<path d="M12375 3600 c3 -5 8 -10 11 -10 2 0 4 5 4 10 0 6 -5 10 -11 10 -5 0
-7 -4 -4 -10z"/>
<path d="M12310 3490 c-6 -11 -8 -20 -6 -20 3 0 10 9 16 20 6 11 8 20 6 20 -3
0 -10 -9 -16 -20z"/>
<path d="M12252 3394 c-17 -12 -20 -19 -12 -29 8 -10 7 -14 -2 -18 -10 -4 -10
-6 1 -6 11 -1 10 -5 -2 -24 -9 -15 -12 -29 -7 -37 5 -8 6 -18 4 -22 -3 -4 -1
-8 4 -8 6 0 12 7 16 15 3 9 12 12 23 9 15 -5 15 -4 3 4 -8 6 -18 8 -22 6 -10
-6 -11 10 -1 19 3 4 11 2 18 -3 8 -7 12 -5 12 5 0 8 -4 12 -8 10 -4 -3 -9 2
-13 10 -3 8 0 15 7 15 8 0 8 3 2 8 -6 4 -10 13 -9 20 1 6 2 17 3 23 0 5 6 7
11 4 6 -3 10 -1 10 4 0 15 -12 14 -38 -5z m5 -19 c0 -8 -4 -12 -9 -9 -5 3 -6
10 -3 15 9 13 12 11 12 -6z m-11 -73 c-17 -16 -18 -16 -5 5 7 12 15 20 18 17
3 -2 -3 -12 -13 -22z"/>
<path d="M12310 3376 c7 -7 13 -7 20 0 6 6 3 10 -10 10 -13 0 -16 -4 -10 -10z"/>
<path d="M12280 3371 c0 -6 4 -13 10 -16 6 -3 7 1 4 9 -7 18 -14 21 -14 7z"/>
<path d="M12290 3239 c0 -5 5 -7 10 -4 6 3 10 8 10 11 0 2 -4 4 -10 4 -5 0
-10 -5 -10 -11z"/>
<path d="M12256 3213 c-6 -14 -5 -15 5 -6 7 7 10 15 7 18 -3 3 -9 -2 -12 -12z"/>
<path d="M3514 3206 c-4 -12 -10 -14 -19 -6 -16 13 -28 0 -14 -17 7 -8 8 -13
1 -13 -5 0 -15 7 -22 15 -7 8 -18 15 -24 15 -7 0 -6 -4 2 -9 11 -7 11 -9 -2
-14 -8 -3 -17 -3 -19 1 -2 4 -2 1 -1 -5 2 -7 -1 -13 -6 -13 -6 0 -10 6 -10 14
0 8 -4 18 -10 21 -6 4 -7 -2 -1 -17 4 -13 6 -29 4 -35 -3 -7 0 -13 7 -13 6 0
8 5 5 10 -6 9 8 14 28 11 5 -1 6 3 2 9 -7 12 36 7 56 -6 7 -4 9 -3 5 4 -3 6
-2 13 4 17 5 3 10 1 10 -5 0 -6 4 -9 9 -6 5 4 11 3 14 -1 2 -5 2 -3 1 4 -2 7
1 15 6 18 11 6 14 -7 10 -40 -3 -27 8 -15 14 16 2 13 5 26 6 29 0 3 10 -11 21
-30 11 -19 17 -26 13 -15 -3 11 -9 28 -11 38 -4 11 -11 16 -21 12 -8 -3 -23 2
-33 11 -17 16 -19 16 -25 0z m21 -17 c-4 -5 -12 -9 -18 -8 -9 0 -8 2 1 6 6 2
9 10 6 15 -4 7 -2 8 5 4 6 -4 9 -12 6 -17z"/>
<path d="M3696 3213 c-4 -5 -16 -9 -27 -9 -38 -3 -40 -4 -23 -21 9 -9 30 -18
46 -19 25 -2 27 0 16 14 -11 13 -10 15 5 9 15 -6 16 -4 7 13 -12 22 -14 23
-24 13z m5 -16 c-6 -8 -8 -17 -4 -20 3 -4 -1 -7 -9 -7 -9 0 -21 7 -28 15 -10
12 -8 14 9 10 11 -2 23 0 26 6 4 5 9 9 12 9 3 0 0 -6 -6 -13z"/>
<path d="M5434 3206 c-4 -12 -10 -14 -19 -6 -16 13 -28 0 -14 -17 7 -8 8 -13
1 -13 -5 0 -15 7 -22 15 -7 8 -18 15 -24 15 -7 0 -6 -4 2 -9 11 -7 11 -9 -2
-14 -8 -3 -17 -3 -19 1 -2 4 -2 1 -1 -5 2 -7 -1 -13 -6 -13 -6 0 -10 6 -10 14
0 8 -4 18 -10 21 -6 4 -7 -2 -1 -17 4 -13 6 -29 4 -35 -3 -7 0 -13 7 -13 6 0
8 5 5 10 -6 9 8 14 28 11 5 -1 6 3 2 9 -7 12 36 7 56 -6 7 -4 9 -3 5 4 -3 6
-2 13 4 17 5 3 10 1 10 -5 0 -6 4 -9 9 -6 5 4 11 3 14 -1 2 -5 2 -3 1 4 -2 7
1 15 6 18 11 6 14 -7 10 -40 -3 -27 8 -15 14 16 2 13 5 26 6 29 0 3 10 -11 21
-30 11 -19 17 -26 13 -15 -3 11 -9 28 -11 38 -4 11 -11 16 -21 12 -8 -3 -23 2
-33 11 -17 16 -19 16 -25 0z m21 -17 c-4 -5 -12 -9 -18 -8 -9 0 -8 2 1 6 6 2
9 10 6 15 -4 7 -2 8 5 4 6 -4 9 -12 6 -17z"/>
<path d="M5616 3213 c-4 -5 -16 -9 -27 -9 -38 -3 -40 -4 -23 -21 9 -9 30 -18
46 -19 25 -2 27 0 16 14 -11 13 -10 15 5 9 15 -6 16 -4 7 13 -12 22 -14 23
-24 13z m5 -16 c-6 -8 -8 -17 -4 -20 3 -4 -1 -7 -9 -7 -9 0 -21 7 -28 15 -10
12 -8 14 9 10 11 -2 23 0 26 6 4 5 9 9 12 9 3 0 0 -6 -6 -13z"/>
<path d="M7354 3206 c-4 -12 -10 -14 -19 -6 -16 13 -28 0 -14 -17 7 -8 8 -13
1 -13 -5 0 -15 7 -22 15 -7 8 -18 15 -24 15 -7 0 -6 -4 2 -9 11 -7 11 -9 -2
-14 -8 -3 -17 -3 -19 1 -2 4 -2 1 -1 -5 2 -7 -1 -13 -6 -13 -6 0 -10 6 -10 14
0 8 -4 18 -10 21 -6 4 -7 -2 -1 -17 4 -13 6 -29 4 -35 -3 -7 0 -13 7 -13 6 0
8 5 5 10 -6 9 8 14 28 11 5 -1 6 3 2 9 -7 12 36 7 56 -6 7 -4 9 -3 5 4 -3 6
-2 13 4 17 5 3 10 1 10 -5 0 -6 4 -9 9 -6 5 4 11 3 14 -1 2 -5 2 -3 1 4 -2 7
1 15 6 18 11 6 14 -7 10 -40 -3 -27 8 -15 14 16 2 13 5 26 6 29 0 3 10 -11 21
-30 11 -19 17 -26 13 -15 -3 11 -9 28 -11 38 -4 11 -11 16 -21 12 -8 -3 -23 2
-33 11 -17 16 -19 16 -25 0z m21 -17 c-4 -5 -12 -9 -18 -8 -9 0 -8 2 1 6 6 2
9 10 6 15 -4 7 -2 8 5 4 6 -4 9 -12 6 -17z"/>
<path d="M7536 3213 c-4 -5 -16 -9 -27 -9 -38 -3 -40 -4 -23 -21 9 -9 30 -18
46 -19 25 -2 27 0 16 14 -11 13 -10 15 5 9 15 -6 16 -4 7 13 -12 22 -14 23
-24 13z m5 -16 c-6 -8 -8 -17 -4 -20 3 -4 -1 -7 -9 -7 -9 0 -21 7 -28 15 -10
12 -8 14 9 10 11 -2 23 0 26 6 4 5 9 9 12 9 3 0 0 -6 -6 -13z"/>
<path d="M9274 3206 c-4 -12 -10 -14 -19 -6 -16 13 -28 0 -14 -17 7 -8 8 -13
1 -13 -5 0 -15 7 -22 15 -7 8 -18 15 -24 15 -7 0 -6 -4 2 -9 11 -7 11 -9 -2
-14 -8 -3 -17 -3 -19 1 -2 4 -2 1 -1 -5 2 -7 -1 -13 -6 -13 -6 0 -10 6 -10 14
0 8 -4 18 -10 21 -6 4 -7 -2 -1 -17 4 -13 6 -29 4 -35 -3 -7 0 -13 7 -13 6 0
8 5 5 10 -6 9 8 14 28 11 5 -1 6 3 2 9 -7 12 36 7 56 -6 7 -4 9 -3 5 4 -3 6
-2 13 4 17 5 3 10 1 10 -5 0 -6 4 -9 9 -6 5 4 11 3 14 -1 2 -5 2 -3 1 4 -2 7
1 15 6 18 11 6 14 -7 10 -40 -3 -27 8 -15 14 16 2 13 5 26 6 29 0 3 10 -11 21
-30 11 -19 17 -26 13 -15 -3 11 -9 28 -11 38 -4 11 -11 16 -21 12 -8 -3 -23 2
-33 11 -17 16 -19 16 -25 0z m21 -17 c-4 -5 -12 -9 -18 -8 -9 0 -8 2 1 6 6 2
9 10 6 15 -4 7 -2 8 5 4 6 -4 9 -12 6 -17z"/>
<path d="M9456 3213 c-4 -5 -16 -9 -27 -9 -38 -3 -40 -4 -23 -21 9 -9 30 -18
46 -19 25 -2 27 0 16 14 -11 13 -10 15 5 9 15 -6 16 -4 7 13 -12 22 -14 23
-24 13z m5 -16 c-6 -8 -8 -17 -4 -20 3 -4 -1 -7 -9 -7 -9 0 -21 7 -28 15 -10
12 -8 14 9 10 11 -2 23 0 26 6 4 5 9 9 12 9 3 0 0 -6 -6 -13z"/>
<path d="M11834 3205 c-5 -11 -10 -13 -19 -5 -16 13 -28 0 -14 -17 7 -8 8 -13
1 -13 -5 0 -15 7 -22 15 -7 8 -18 15 -24 15 -7 0 -6 -4 2 -9 11 -7 11 -9 -2
-14 -8 -3 -17 -3 -19 1 -2 4 -2 1 -1 -5 2 -7 -1 -13 -6 -13 -6 0 -10 6 -10 14
0 8 -4 18 -10 21 -6 4 -7 -2 -1 -17 4 -13 6 -29 4 -35 -3 -7 0 -13 7 -13 6 0
8 5 5 10 -6 9 8 14 28 11 5 -1 6 3 2 9 -7 12 36 7 56 -6 7 -4 9 -3 5 4 -3 6
-2 13 4 17 5 3 10 1 10 -5 0 -6 4 -9 9 -6 5 4 11 3 14 -1 2 -5 2 -3 1 4 -2 7
1 15 6 18 11 6 14 -7 10 -40 -3 -28 8 -15 13 15 3 18 -2 30 -19 43 -22 16 -25
16 -30 2z m21 -16 c-4 -5 -12 -9 -18 -8 -9 0 -8 2 1 6 6 2 9 10 6 15 -4 7 -2
8 5 4 6 -4 9 -12 6 -17z"/>
<path d="M12080 3205 c-14 -16 -3 -20 19 -6 8 5 9 11 3 15 -5 3 -15 -1 -22 -9z"/>
<path d="M2681 3190 c-15 -11 -18 -19 -11 -30 9 -13 10 -13 10 0 0 13 1 13 11
0 8 -11 9 -9 3 10 -6 22 -5 23 10 11 9 -7 16 -10 16 -5 0 5 7 0 15 -10 8 -11
15 -14 15 -8 0 7 7 12 15 12 8 0 15 6 15 13 0 8 4 7 10 -3 9 -13 11 -13 20 0
5 8 10 10 10 4 0 -20 39 -24 49 -6 5 9 13 14 16 10 4 -4 1 -16 -7 -27 -8 -12
-17 -19 -20 -16 -2 3 -5 -2 -5 -10 0 -10 4 -12 12 -5 7 5 15 7 19 3 4 -4 4 1
0 11 -6 15 -4 17 7 11 8 -4 11 -5 7 0 -4 4 -3 17 3 28 8 14 8 18 0 13 -6 -4
-11 -3 -11 3 0 12 -24 8 -43 -7 -9 -7 -18 -9 -21 -4 -3 5 -17 8 -31 7 -14 -2
-25 0 -25 4 0 13 -69 7 -89 -9z m84 1 c6 -1 3 -5 -5 -11 -9 -5 -19 -5 -26 0
-6 6 -13 7 -16 4 -3 -3 -9 -1 -12 4 -4 8 11 8 59 3z m98 -6 c-3 -9 -8 -14 -10
-11 -3 3 -2 9 2 15 9 16 15 13 8 -4z"/>
<path d="M4601 3190 c-15 -11 -18 -19 -11 -30 9 -13 10 -13 10 0 0 13 1 13 11
0 8 -11 9 -9 3 10 -6 22 -5 23 10 11 9 -7 16 -10 16 -5 0 5 7 0 15 -10 8 -11
15 -14 15 -8 0 7 7 12 15 12 8 0 15 6 15 13 0 8 4 7 10 -3 9 -13 11 -13 20 0
5 8 10 10 10 4 0 -20 39 -24 49 -6 5 9 13 14 16 10 4 -4 1 -16 -7 -27 -8 -12
-17 -19 -20 -16 -2 3 -5 -2 -5 -10 0 -10 4 -12 12 -5 7 5 15 7 19 3 4 -4 4 1
0 11 -6 15 -4 17 7 11 8 -4 11 -5 7 0 -4 4 -3 17 3 28 8 14 8 18 0 13 -6 -4
-11 -3 -11 3 0 12 -24 8 -43 -7 -9 -7 -18 -9 -21 -4 -3 5 -17 8 -31 7 -14 -2
-25 0 -25 4 0 13 -69 7 -89 -9z m84 1 c6 -1 3 -5 -5 -11 -9 -5 -19 -5 -26 0
-6 6 -13 7 -16 4 -3 -3 -9 -1 -12 4 -4 8 11 8 59 3z m98 -6 c-3 -9 -8 -14 -10
-11 -3 3 -2 9 2 15 9 16 15 13 8 -4z"/>
<path d="M6521 3190 c-15 -11 -18 -19 -11 -30 9 -13 10 -13 10 0 0 13 1 13 11
0 8 -11 9 -9 3 10 -6 22 -5 23 10 11 9 -7 16 -10 16 -5 0 5 7 0 15 -10 8 -11
15 -14 15 -8 0 7 7 12 15 12 8 0 15 6 15 13 0 8 4 7 10 -3 9 -13 11 -13 20 0
5 8 10 10 10 4 0 -20 39 -24 49 -6 5 9 13 14 16 10 4 -4 1 -16 -7 -27 -8 -12
-17 -19 -20 -16 -2 3 -5 -2 -5 -10 0 -10 4 -12 12 -5 7 5 15 7 19 3 4 -4 4 1
0 11 -6 15 -4 17 7 11 8 -4 11 -5 7 0 -4 4 -3 17 3 28 8 14 8 18 0 13 -6 -4
-11 -3 -11 3 0 12 -24 8 -43 -7 -9 -7 -18 -9 -21 -4 -3 5 -17 8 -31 7 -14 -2
-25 0 -25 4 0 13 -69 7 -89 -9z m84 1 c6 -1 3 -5 -5 -11 -9 -5 -19 -5 -26 0
-6 6 -13 7 -16 4 -3 -3 -9 -1 -12 4 -4 8 11 8 59 3z m98 -6 c-3 -9 -8 -14 -10
-11 -3 3 -2 9 2 15 9 16 15 13 8 -4z"/>
<path d="M8441 3190 c-15 -11 -18 -19 -11 -30 9 -13 10 -13 10 0 0 13 1 13 11
0 8 -11 9 -9 3 10 -6 22 -5 23 10 11 9 -7 16 -10 16 -5 0 5 7 0 15 -10 8 -11
15 -14 15 -8 0 7 7 12 15 12 8 0 15 6 15 13 0 8 4 7 10 -3 9 -13 11 -13 20 0
5 8 10 10 10 4 0 -20 39 -24 49 -6 5 9 13 14 16 10 4 -4 1 -16 -7 -27 -8 -12
-17 -19 -20 -16 -2 3 -5 -2 -5 -10 0 -10 4 -12 12 -5 7 5 15 7 19 3 4 -4 4 1
0 11 -6 15 -4 17 7 11 8 -4 11 -5 7 0 -4 4 -3 17 3 28 8 14 8 18 0 13 -6 -4
-11 -3 -11 3 0 12 -24 8 -43 -7 -9 -7 -18 -9 -21 -4 -3 5 -17 8 -31 7 -14 -2
-25 0 -25 4 0 13 -69 7 -89 -9z m84 1 c6 -1 3 -5 -5 -11 -9 -5 -19 -5 -26 0
-6 6 -13 7 -16 4 -3 -3 -9 -1 -12 4 -4 8 11 8 59 3z m98 -6 c-3 -9 -8 -14 -10
-11 -3 3 -2 9 2 15 9 16 15 13 8 -4z"/>
<path d="M11001 3190 c-15 -11 -18 -19 -11 -30 9 -13 10 -13 10 0 0 13 1 13
11 0 8 -11 9 -9 3 10 -6 22 -5 23 10 11 9 -7 16 -10 16 -5 0 5 7 0 15 -10 8
-11 15 -14 15 -8 0 7 7 12 15 12 8 0 15 6 15 13 0 8 4 7 10 -3 9 -13 11 -13
20 0 5 8 10 10 10 4 0 -20 39 -24 49 -6 5 9 13 14 16 10 4 -4 1 -16 -7 -27 -8
-12 -17 -19 -20 -16 -2 3 -5 -2 -5 -10 0 -10 4 -12 12 -5 7 5 15 7 19 3 4 -4
4 1 0 11 -6 15 -4 17 7 11 8 -4 11 -5 7 0 -4 4 -3 17 3 28 8 14 8 18 0 13 -6
-4 -11 -3 -11 3 0 12 -24 8 -43 -7 -9 -7 -18 -9 -21 -4 -3 5 -17 8 -31 7 -14
-2 -25 0 -25 4 0 13 -69 7 -89 -9z m84 1 c6 -1 3 -5 -5 -11 -9 -5 -19 -5 -26
0 -6 6 -13 7 -16 4 -3 -3 -9 -1 -12 4 -4 8 11 8 59 3z m98 -6 c-3 -9 -8 -14
-10 -11 -3 3 -2 9 2 15 9 16 15 13 8 -4z"/>
<path d="M12200 3206 c0 -2 8 -10 18 -17 15 -13 16 -12 3 4 -13 16 -21 21 -21
13z"/>
<path d="M2570 3170 c-12 -7 -10 -9 7 -7 12 0 19 5 17 9 -6 10 -6 10 -24 -2z"/>
<path d="M4490 3170 c-12 -7 -10 -9 7 -7 12 0 19 5 17 9 -6 10 -6 10 -24 -2z"/>
<path d="M6410 3170 c-12 -7 -10 -9 7 -7 12 0 19 5 17 9 -6 10 -6 10 -24 -2z"/>
<path d="M8330 3170 c-12 -7 -10 -9 7 -7 12 0 19 5 17 9 -6 10 -6 10 -24 -2z"/>
<path d="M10890 3170 c-12 -7 -10 -9 7 -7 12 0 19 5 17 9 -6 10 -6 10 -24 -2z"/>
<path d="M1735 3160 c-3 -6 1 -7 9 -4 18 7 21 14 7 14 -6 0 -13 -4 -16 -10z"/>
<path d="M2647 3149 c4 -13 8 -18 11 -10 2 7 -1 18 -6 23 -8 8 -9 4 -5 -13z"/>
<path d="M4567 3149 c4 -13 8 -18 11 -10 2 7 -1 18 -6 23 -8 8 -9 4 -5 -13z"/>
<path d="M6487 3149 c4 -13 8 -18 11 -10 2 7 -1 18 -6 23 -8 8 -9 4 -5 -13z"/>
<path d="M8407 3149 c4 -13 8 -18 11 -10 2 7 -1 18 -6 23 -8 8 -9 4 -5 -13z"/>
<path d="M10967 3149 c4 -13 8 -18 11 -10 2 7 -1 18 -6 23 -8 8 -9 4 -5 -13z"/>
<path d="M12175 3160 c3 -5 0 -10 -8 -10 -22 0 -41 -26 -26 -36 8 -4 9 -3 5 4
-4 8 3 16 19 22 14 5 23 14 20 20 -3 5 -8 10 -11 10 -3 0 -2 -4 1 -10z"/>
<path d="M2177 3141 c-4 -17 -3 -21 5 -13 5 5 8 16 6 23 -3 8 -7 3 -11 -10z"/>
<path d="M2497 3141 c-4 -17 -3 -21 5 -13 5 5 8 16 6 23 -3 8 -7 3 -11 -10z"/>
<path d="M2707 3147 c-3 -8 0 -14 7 -14 7 0 13 6 13 14 0 7 -4 13 -8 13 -4 0
-9 -6 -12 -13z"/>
<path d="M2770 3150 c-11 -7 -11 -10 -2 -10 7 0 11 -4 7 -9 -3 -5 -2 -12 3
-15 4 -2 8 6 8 20 0 13 0 24 0 24 -1 0 -8 -5 -16 -10z"/>
<path d="M3290 3150 c-9 -6 -10 -10 -3 -10 6 0 15 5 18 10 8 12 4 12 -15 0z"/>
<path d="M3636 3145 c-4 -11 -4 -16 0 -12 4 4 12 2 19 -3 8 -7 12 -5 12 5 0 8
-4 12 -8 9 -4 -2 -9 1 -11 8 -3 7 -7 4 -12 -7z"/>
<path d="M4097 3141 c-4 -17 -3 -21 5 -13 5 5 8 16 6 23 -3 8 -7 3 -11 -10z"/>
<path d="M4417 3141 c-4 -17 -3 -21 5 -13 5 5 8 16 6 23 -3 8 -7 3 -11 -10z"/>
<path d="M4627 3147 c-3 -8 0 -14 7 -14 7 0 13 6 13 14 0 7 -4 13 -8 13 -4 0
-9 -6 -12 -13z"/>
<path d="M4690 3150 c-11 -7 -11 -10 -2 -10 7 0 11 -4 7 -9 -3 -5 -2 -12 3
-15 4 -2 8 6 8 20 0 13 0 24 0 24 -1 0 -8 -5 -16 -10z"/>
<path d="M5210 3150 c-9 -6 -10 -10 -3 -10 6 0 15 5 18 10 8 12 4 12 -15 0z"/>
<path d="M5556 3145 c-4 -11 -4 -16 0 -12 4 4 12 2 19 -3 8 -7 12 -5 12 5 0 8
-4 12 -8 9 -4 -2 -9 1 -11 8 -3 7 -7 4 -12 -7z"/>
<path d="M6017 3141 c-4 -17 -3 -21 5 -13 5 5 8 16 6 23 -3 8 -7 3 -11 -10z"/>
<path d="M6337 3141 c-4 -17 -3 -21 5 -13 5 5 8 16 6 23 -3 8 -7 3 -11 -10z"/>
<path d="M6547 3147 c-3 -8 0 -14 7 -14 7 0 13 6 13 14 0 7 -4 13 -8 13 -4 0
-9 -6 -12 -13z"/>
<path d="M6610 3150 c-11 -7 -11 -10 -2 -10 7 0 11 -4 7 -9 -3 -5 -2 -12 3
-15 4 -2 8 6 8 20 0 13 0 24 0 24 -1 0 -8 -5 -16 -10z"/>
<path d="M7130 3150 c-9 -6 -10 -10 -3 -10 6 0 15 5 18 10 8 12 4 12 -15 0z"/>
<path d="M7476 3145 c-4 -11 -4 -16 0 -12 4 4 12 2 19 -3 8 -7 12 -5 12 5 0 8
-4 12 -8 9 -4 -2 -9 1 -11 8 -3 7 -7 4 -12 -7z"/>
<path d="M7937 3141 c-4 -17 -3 -21 5 -13 5 5 8 16 6 23 -3 8 -7 3 -11 -10z"/>
<path d="M8257 3141 c-4 -17 -3 -21 5 -13 5 5 8 16 6 23 -3 8 -7 3 -11 -10z"/>
<path d="M8467 3147 c-3 -8 0 -14 7 -14 7 0 13 6 13 14 0 7 -4 13 -8 13 -4 0
-9 -6 -12 -13z"/>
<path d="M8530 3150 c-11 -7 -11 -10 -2 -10 7 0 11 -4 7 -9 -3 -5 -2 -12 3
-15 4 -2 8 6 8 20 0 13 0 24 0 24 -1 0 -8 -5 -16 -10z"/>
<path d="M9050 3150 c-9 -6 -10 -10 -3 -10 6 0 15 5 18 10 8 12 4 12 -15 0z"/>
<path d="M9396 3145 c-4 -11 -4 -16 0 -12 4 4 12 2 19 -3 8 -7 12 -5 12 5 0 8
-4 12 -8 9 -4 -2 -9 1 -11 8 -3 7 -7 4 -12 -7z"/>
<path d="M9857 3141 c-4 -17 -3 -21 5 -13 5 5 8 16 6 23 -3 8 -7 3 -11 -10z"/>
<path d="M10177 3141 c-4 -17 -3 -21 5 -13 5 5 8 16 6 23 -3 8 -7 3 -11 -10z"/>
<path d="M10497 3141 c-4 -17 -3 -21 5 -13 5 5 8 16 6 23 -3 8 -7 3 -11 -10z"/>
<path d="M10817 3141 c-4 -17 -3 -21 5 -13 5 5 8 16 6 23 -3 8 -7 3 -11 -10z"/>
<path d="M11027 3147 c-3 -8 0 -14 7 -14 7 0 13 6 13 14 0 7 -4 13 -8 13 -4 0
-9 -6 -12 -13z"/>
<path d="M11090 3150 c-11 -7 -11 -10 -2 -10 7 0 11 -4 7 -9 -3 -5 -2 -12 3
-15 4 -2 8 6 8 20 0 13 0 24 0 24 -1 0 -8 -5 -16 -10z"/>
<path d="M11610 3150 c-9 -6 -10 -10 -3 -10 6 0 15 5 18 10 8 12 4 12 -15 0z"/>
<path d="M11956 3145 c-4 -11 -4 -16 0 -12 4 4 12 2 19 -3 8 -7 12 -5 12 5 0
8 -4 12 -8 9 -4 -2 -9 1 -11 8 -3 7 -7 4 -12 -7z"/>
<path d="M1955 3140 c3 -5 8 -10 11 -10 2 0 4 5 4 10 0 6 -5 10 -11 10 -5 0
-7 -4 -4 -10z"/>
<path d="M2004 3142 c4 -3 14 -7 22 -8 9 -1 13 0 10 4 -4 3 -14 7 -22 8 -9 1
-13 0 -10 -4z"/>
<path d="M2275 3140 c3 -5 8 -10 11 -10 2 0 4 5 4 10 0 6 -5 10 -11 10 -5 0
-7 -4 -4 -10z"/>
<path d="M2324 3142 c4 -3 14 -7 22 -8 9 -1 13 0 10 4 -4 3 -14 7 -22 8 -9 1
-13 0 -10 -4z"/>
<path d="M3070 3141 c0 -6 4 -12 8 -15 5 -3 9 1 9 9 0 8 -4 15 -9 15 -4 0 -8
-4 -8 -9z"/>
<path d="M3337 3135 c-4 -8 -1 -17 6 -21 7 -4 9 -4 5 1 -4 4 -3 14 3 22 7 8 8
13 1 13 -5 0 -12 -7 -15 -15z"/>
<path d="M3446 3142 c-3 -5 1 -9 9 -9 8 0 15 4 15 9 0 4 -4 8 -9 8 -6 0 -12
-4 -15 -8z"/>
<path d="M3574 3136 c1 -8 5 -18 8 -22 4 -3 5 1 4 10 -1 8 -5 18 -8 22 -4 3
-5 -1 -4 -10z"/>
<path d="M3780 3139 c0 -5 5 -7 10 -4 6 3 10 8 10 11 0 2 -4 4 -10 4 -5 0 -10
-5 -10 -11z"/>
<path d="M3875 3140 c3 -5 8 -10 11 -10 2 0 4 5 4 10 0 6 -5 10 -11 10 -5 0
-7 -4 -4 -10z"/>
<path d="M3924 3142 c4 -3 14 -7 22 -8 9 -1 13 0 10 4 -4 3 -14 7 -22 8 -9 1
-13 0 -10 -4z"/>
<path d="M4195 3140 c3 -5 8 -10 11 -10 2 0 4 5 4 10 0 6 -5 10 -11 10 -5 0
-7 -4 -4 -10z"/>
<path d="M4244 3142 c4 -3 14 -7 22 -8 9 -1 13 0 10 4 -4 3 -14 7 -22 8 -9 1
-13 0 -10 -4z"/>
<path d="M4990 3141 c0 -6 4 -12 8 -15 5 -3 9 1 9 9 0 8 -4 15 -9 15 -4 0 -8
-4 -8 -9z"/>
<path d="M5257 3135 c-4 -8 -1 -17 6 -21 7 -4 9 -4 5 1 -4 4 -3 14 3 22 7 8 8
13 1 13 -5 0 -12 -7 -15 -15z"/>
<path d="M5366 3142 c-3 -5 1 -9 9 -9 8 0 15 4 15 9 0 4 -4 8 -9 8 -6 0 -12
-4 -15 -8z"/>
<path d="M5494 3136 c1 -8 5 -18 8 -22 4 -3 5 1 4 10 -1 8 -5 18 -8 22 -4 3
-5 -1 -4 -10z"/>
<path d="M5700 3139 c0 -5 5 -7 10 -4 6 3 10 8 10 11 0 2 -4 4 -10 4 -5 0 -10
-5 -10 -11z"/>
<path d="M5795 3140 c3 -5 8 -10 11 -10 2 0 4 5 4 10 0 6 -5 10 -11 10 -5 0
-7 -4 -4 -10z"/>
<path d="M5844 3142 c4 -3 14 -7 22 -8 9 -1 13 0 10 4 -4 3 -14 7 -22 8 -9 1
-13 0 -10 -4z"/>
<path d="M6115 3140 c3 -5 8 -10 11 -10 2 0 4 5 4 10 0 6 -5 10 -11 10 -5 0
-7 -4 -4 -10z"/>
<path d="M6164 3142 c4 -3 14 -7 22 -8 9 -1 13 0 10 4 -4 3 -14 7 -22 8 -9 1
-13 0 -10 -4z"/>
<path d="M6910 3141 c0 -6 4 -12 8 -15 5 -3 9 1 9 9 0 8 -4 15 -9 15 -4 0 -8
-4 -8 -9z"/>
<path d="M7177 3135 c-4 -8 -1 -17 6 -21 7 -4 9 -4 5 1 -4 4 -3 14 3 22 7 8 8
13 1 13 -5 0 -12 -7 -15 -15z"/>
<path d="M7286 3142 c-3 -5 1 -9 9 -9 8 0 15 4 15 9 0 4 -4 8 -9 8 -6 0 -12
-4 -15 -8z"/>
<path d="M7414 3136 c1 -8 5 -18 8 -22 4 -3 5 1 4 10 -1 8 -5 18 -8 22 -4 3
-5 -1 -4 -10z"/>
<path d="M7620 3139 c0 -5 5 -7 10 -4 6 3 10 8 10 11 0 2 -4 4 -10 4 -5 0 -10
-5 -10 -11z"/>
<path d="M7715 3140 c3 -5 8 -10 11 -10 2 0 4 5 4 10 0 6 -5 10 -11 10 -5 0
-7 -4 -4 -10z"/>
<path d="M7764 3142 c4 -3 14 -7 22 -8 9 -1 13 0 10 4 -4 3 -14 7 -22 8 -9 1
-13 0 -10 -4z"/>
<path d="M8035 3140 c3 -5 8 -10 11 -10 2 0 4 5 4 10 0 6 -5 10 -11 10 -5 0
-7 -4 -4 -10z"/>
<path d="M8084 3142 c4 -3 14 -7 22 -8 9 -1 13 0 10 4 -4 3 -14 7 -22 8 -9 1
-13 0 -10 -4z"/>
<path d="M8830 3141 c0 -6 4 -12 8 -15 5 -3 9 1 9 9 0 8 -4 15 -9 15 -4 0 -8
-4 -8 -9z"/>
<path d="M9097 3135 c-4 -8 -1 -17 6 -21 7 -4 9 -4 5 1 -4 4 -3 14 3 22 7 8 8
13 1 13 -5 0 -12 -7 -15 -15z"/>
<path d="M9206 3142 c-3 -5 1 -9 9 -9 8 0 15 4 15 9 0 4 -4 8 -9 8 -6 0 -12
-4 -15 -8z"/>
<path d="M9334 3136 c1 -8 5 -18 8 -22 4 -3 5 1 4 10 -1 8 -5 18 -8 22 -4 3
-5 -1 -4 -10z"/>
<path d="M9540 3139 c0 -5 5 -7 10 -4 6 3 10 8 10 11 0 2 -4 4 -10 4 -5 0 -10
-5 -10 -11z"/>
<path d="M9635 3140 c3 -5 8 -10 11 -10 2 0 4 5 4 10 0 6 -5 10 -11 10 -5 0
-7 -4 -4 -10z"/>
<path d="M9684 3142 c4 -3 14 -7 22 -8 9 -1 13 0 10 4 -4 3 -14 7 -22 8 -9 1
-13 0 -10 -4z"/>
<path d="M9955 3140 c3 -5 8 -10 11 -10 2 0 4 5 4 10 0 6 -5 10 -11 10 -5 0
-7 -4 -4 -10z"/>
<path d="M10004 3142 c4 -3 14 -7 22 -8 9 -1 13 0 10 4 -4 3 -14 7 -22 8 -9 1
-13 0 -10 -4z"/>
<path d="M10275 3140 c3 -5 8 -10 11 -10 2 0 4 5 4 10 0 6 -5 10 -11 10 -5 0
-7 -4 -4 -10z"/>
<path d="M10324 3142 c4 -3 14 -7 22 -8 9 -1 13 0 10 4 -4 3 -14 7 -22 8 -9 1
-13 0 -10 -4z"/>
<path d="M10595 3140 c3 -5 8 -10 11 -10 2 0 4 5 4 10 0 6 -5 10 -11 10 -5 0
-7 -4 -4 -10z"/>
<path d="M10644 3142 c4 -3 14 -7 22 -8 9 -1 13 0 10 4 -4 3 -14 7 -22 8 -9 1
-13 0 -10 -4z"/>
<path d="M11390 3141 c0 -6 4 -12 8 -15 5 -3 9 1 9 9 0 8 -4 15 -9 15 -4 0 -8
-4 -8 -9z"/>
<path d="M11657 3135 c-4 -8 -1 -17 6 -21 7 -4 9 -4 5 1 -4 4 -3 14 3 22 7 8
8 13 1 13 -5 0 -12 -7 -15 -15z"/>
<path d="M11766 3142 c-3 -5 1 -9 9 -9 8 0 15 4 15 9 0 4 -4 8 -9 8 -6 0 -12
-4 -15 -8z"/>
<path d="M11894 3136 c1 -8 5 -18 8 -22 4 -3 5 1 4 10 -1 8 -5 18 -8 22 -4 3
-5 -1 -4 -10z"/>
<path d="M12075 3140 c3 -5 8 -10 11 -10 2 0 4 5 4 10 0 6 -5 10 -11 10 -5 0
-7 -4 -4 -10z"/>
<path d="M1933 3125 c0 -8 4 -12 9 -9 5 3 6 10 3 15 -9 13 -12 11 -12 -6z"/>
<path d="M2253 3125 c0 -8 4 -12 9 -9 5 3 6 10 3 15 -9 13 -12 11 -12 -6z"/>
<path d="M3155 3131 c-3 -5 -2 -12 3 -15 5 -3 9 1 9 9 0 17 -3 19 -12 6z"/>
<path d="M3853 3125 c0 -8 4 -12 9 -9 5 3 6 10 3 15 -9 13 -12 11 -12 -6z"/>
<path d="M4173 3125 c0 -8 4 -12 9 -9 5 3 6 10 3 15 -9 13 -12 11 -12 -6z"/>
<path d="M5075 3131 c-3 -5 -2 -12 3 -15 5 -3 9 1 9 9 0 17 -3 19 -12 6z"/>
<path d="M5773 3125 c0 -8 4 -12 9 -9 5 3 6 10 3 15 -9 13 -12 11 -12 -6z"/>
<path d="M6093 3125 c0 -8 4 -12 9 -9 5 3 6 10 3 15 -9 13 -12 11 -12 -6z"/>
<path d="M6995 3131 c-3 -5 -2 -12 3 -15 5 -3 9 1 9 9 0 17 -3 19 -12 6z"/>
<path d="M7693 3125 c0 -8 4 -12 9 -9 5 3 6 10 3 15 -9 13 -12 11 -12 -6z"/>
<path d="M8013 3125 c0 -8 4 -12 9 -9 5 3 6 10 3 15 -9 13 -12 11 -12 -6z"/>
<path d="M8915 3131 c-3 -5 -2 -12 3 -15 5 -3 9 1 9 9 0 17 -3 19 -12 6z"/>
<path d="M9613 3125 c0 -8 4 -12 9 -9 5 3 6 10 3 15 -9 13 -12 11 -12 -6z"/>
<path d="M9933 3125 c0 -8 4 -12 9 -9 5 3 6 10 3 15 -9 13 -12 11 -12 -6z"/>
<path d="M10253 3125 c0 -8 4 -12 9 -9 5 3 6 10 3 15 -9 13 -12 11 -12 -6z"/>
<path d="M10573 3125 c0 -8 4 -12 9 -9 5 3 6 10 3 15 -9 13 -12 11 -12 -6z"/>
<path d="M11475 3131 c-3 -5 -2 -12 3 -15 5 -3 9 1 9 9 0 17 -3 19 -12 6z"/>
<path d="M12053 3125 c0 -8 4 -12 9 -9 5 3 6 10 3 15 -9 13 -12 11 -12 -6z"/>
<path d="M2946 3118 c3 -5 10 -6 15 -3 13 9 11 12 -6 12 -8 0 -12 -4 -9 -9z"/>
<path d="M2990 3116 c7 -7 13 -7 20 0 6 6 3 10 -10 10 -13 0 -16 -4 -10 -10z"/>
<path d="M3255 3120 c3 -5 8 -10 11 -10 2 0 4 5 4 10 0 6 -5 10 -11 10 -5 0
-7 -4 -4 -10z"/>
<path d="M3506 3118 c3 -5 10 -6 15 -3 13 9 11 12 -6 12 -8 0 -12 -4 -9 -9z"/>
<path d="M4866 3118 c3 -5 10 -6 15 -3 13 9 11 12 -6 12 -8 0 -12 -4 -9 -9z"/>
<path d="M4910 3116 c7 -7 13 -7 20 0 6 6 3 10 -10 10 -13 0 -16 -4 -10 -10z"/>
<path d="M5175 3120 c3 -5 8 -10 11 -10 2 0 4 5 4 10 0 6 -5 10 -11 10 -5 0
-7 -4 -4 -10z"/>
<path d="M5426 3118 c3 -5 10 -6 15 -3 13 9 11 12 -6 12 -8 0 -12 -4 -9 -9z"/>
<path d="M6786 3118 c3 -5 10 -6 15 -3 13 9 11 12 -6 12 -8 0 -12 -4 -9 -9z"/>
<path d="M6830 3116 c7 -7 13 -7 20 0 6 6 3 10 -10 10 -13 0 -16 -4 -10 -10z"/>
<path d="M7095 3120 c3 -5 8 -10 11 -10 2 0 4 5 4 10 0 6 -5 10 -11 10 -5 0
-7 -4 -4 -10z"/>
<path d="M7346 3118 c3 -5 10 -6 15 -3 13 9 11 12 -6 12 -8 0 -12 -4 -9 -9z"/>
<path d="M8706 3118 c3 -5 10 -6 15 -3 13 9 11 12 -6 12 -8 0 -12 -4 -9 -9z"/>
<path d="M8750 3116 c7 -7 13 -7 20 0 6 6 3 10 -10 10 -13 0 -16 -4 -10 -10z"/>
<path d="M9015 3120 c3 -5 8 -10 11 -10 2 0 4 5 4 10 0 6 -5 10 -11 10 -5 0
-7 -4 -4 -10z"/>
<path d="M9266 3118 c3 -5 10 -6 15 -3 13 9 11 12 -6 12 -8 0 -12 -4 -9 -9z"/>
<path d="M11266 3118 c3 -5 10 -6 15 -3 13 9 11 12 -6 12 -8 0 -12 -4 -9 -9z"/>
<path d="M11310 3116 c7 -7 13 -7 20 0 6 6 3 10 -10 10 -13 0 -16 -4 -10 -10z"/>
<path d="M11575 3120 c3 -5 8 -10 11 -10 2 0 4 5 4 10 0 6 -5 10 -11 10 -5 0
-7 -4 -4 -10z"/>
<path d="M11826 3118 c3 -5 10 -6 15 -3 13 9 11 12 -6 12 -8 0 -12 -4 -9 -9z"/>
<path d="M1890 3100 c0 -5 5 -10 11 -10 5 0 7 5 4 10 -3 6 -8 10 -11 10 -2 0
-4 -4 -4 -10z"/>
<path d="M2610 3100 c0 -5 5 -10 11 -10 5 0 7 5 4 10 -3 6 -8 10 -11 10 -2 0
-4 -4 -4 -10z"/>
<path d="M3300 3100 c-9 -6 -10 -10 -3 -10 6 0 15 5 18 10 8 12 4 12 -15 0z"/>
<path d="M3540 3100 c-9 -6 -10 -10 -3 -10 6 0 15 5 18 10 8 12 4 12 -15 0z"/>
<path d="M4530 3100 c0 -5 5 -10 11 -10 5 0 7 5 4 10 -3 6 -8 10 -11 10 -2 0
-4 -4 -4 -10z"/>
<path d="M5220 3100 c-9 -6 -10 -10 -3 -10 6 0 15 5 18 10 8 12 4 12 -15 0z"/>
<path d="M5460 3100 c-9 -6 -10 -10 -3 -10 6 0 15 5 18 10 8 12 4 12 -15 0z"/>
<path d="M6450 3100 c0 -5 5 -10 11 -10 5 0 7 5 4 10 -3 6 -8 10 -11 10 -2 0
-4 -4 -4 -10z"/>
<path d="M7140 3100 c-9 -6 -10 -10 -3 -10 6 0 15 5 18 10 8 12 4 12 -15 0z"/>
<path d="M7380 3100 c-9 -6 -10 -10 -3 -10 6 0 15 5 18 10 8 12 4 12 -15 0z"/>
<path d="M8370 3100 c0 -5 5 -10 11 -10 5 0 7 5 4 10 -3 6 -8 10 -11 10 -2 0
-4 -4 -4 -10z"/>
<path d="M9060 3100 c-9 -6 -10 -10 -3 -10 6 0 15 5 18 10 8 12 4 12 -15 0z"/>
<path d="M9300 3100 c-9 -6 -10 -10 -3 -10 6 0 15 5 18 10 8 12 4 12 -15 0z"/>
<path d="M10930 3100 c0 -5 5 -10 11 -10 5 0 7 5 4 10 -3 6 -8 10 -11 10 -2 0
-4 -4 -4 -10z"/>
<path d="M11620 3100 c-9 -6 -10 -10 -3 -10 6 0 15 5 18 10 8 12 4 12 -15 0z"/>
<path d="M11860 3100 c-9 -6 -10 -10 -3 -10 6 0 15 5 18 10 8 12 4 12 -15 0z"/>
<path d="M12100 3100 c-9 -6 -10 -10 -3 -10 6 0 15 5 18 10 8 12 4 12 -15 0z"/>
</g>
</svg>
